<svg xmlns="http://www.w3.org/2000/svg" xmlns:xlink="http://www.w3.org/1999/xlink" width="1000" height="359.576" viewBox="0 0 1000 359.576"><g><g transform="matrix(9.96 0 0 -9.96 -4295.107 7676.541)"><defs><path id="a" d="M428.019 731.833h151.838v40.846h-151.838v-40.846z"/></defs><clipPath id="b"><use xlink:href="#a" overflow="visible"/></clipPath><g clip-path="url(#b)"><path fill="#B5121B" d="M500.045 743.035l-.083-.046-7.251-3.322-6.105-3.886c5.343 2.41 9.69 4.533 13.805 6.723-.13.171-.251.347-.366.531"/><path fill="#B5121B" d="M527.961 766.357l-6.752-6.378-6.604-8.228c.075-.298.136-.602.179-.92l.064.04c10.596 6.505 16.344 10.589 13.113 15.486"/></g></g><g transform="matrix(9.96 0 0 -9.96 -4295.107 7676.541)"><linearGradient id="c" gradientUnits="userSpaceOnUse" x1="451.505" y1="710.462" x2="452.504" y2="710.462" gradientTransform="matrix(551.661 293.323 293.323 -551.661 -457005.188 260244.609)"><stop offset="0" stop-color="#B5121B"/><stop offset=".7" stop-color="#BE3D2E"/><stop offset=".7" stop-color="#BE3D2E"/><stop offset="1" stop-color="#F6E2DA"/></linearGradient><path fill="url(#c)" d="M458.904 764.037l-.431-.094c-.09-.013-.146-.099-.131-.188.015-.09.098-.146.188-.133l.425.084c15.263 2.718 47.002 6.485 53.832-.287 2.083-2.065 1.585-4.729-.831-7.868 1.302-.835 2.231-2.153 2.65-3.8 7.696 5.12 13.331 10.046 13.514 13.483v.338c-.035.641-.276 1.226-.746 1.745-2.198 2.424-8.298 3.344-16.157 3.344-16.21 0-39.908-3.914-52.313-6.624m40.424-19.424c-4.269-3.023-9.33-6.199-14.772-9.534l-.214-.124c-.075-.05-.092-.153-.039-.224.049-.075.151-.093.225-.04l.182.096c4.616 2.408 9.916 5.269 15.253 8.202l.082.046c-.293.481-.533 1.009-.702 1.588l-.015-.01"/></g><path fill="#005288" d="M987.311 263.804l3.227 2.181c-8.137 16.603-24.741 29.98-44.252 29.98-15.936 0-29.033-10.617-29.711-30.577-1.305-35.717 32.181-68.923 59.601-68.923 11.743 0 22.649 5.159 23.127 17.818 1.026 28.396-38.884 37.081-65.188 37.679-.827 2.958-1.135 5.956-.996 10.508.438 11.773 7.58 21.683 22.31 21.683 12.719 0 25.458-10.259 31.882-20.348m-3.576-51.314c-.229-6.713-3.586-11.225-10.548-11.225-16.713 0-34.472 32.729-37.539 45.936 27.42 0 48.744-16.334 48.087-34.711"/><path fill="#005288" d="M824.103 211.459c2.829-.378 7.131-.787 9.084-.787 3.008 0 5.827.578 5.986 3.536.04 1.753-3.157 14.432-3.815 17.36l-6.354 28.008c-2.56 11.504-5.339 23.496-7.819 32.988h16.314l9.193-44.412c27.998-29.173 38.784-38.685 45.388-38.685 2.988 0 5.03 1.554 5.179 5.119.159 5.159-3.018 16.803-4.113 20.149l-9.392 32.36c-2.131 7.291-3.705 13.854-3.556 18.555.299 7.092 4.602 10.239 10.966 10.239 11.952 0 20.607-12.41 28.167-24.631l-2.43-3.566c-3.058 4.91-9.92 15.179-15.508 15.179-1.773 0-3.436-1.165-3.496-4.123-.159-3.795 1.434-9.432 2.55-13.207l10.398-37.938c2.779-10.448 4.123-17.181 4.054-20.737-.259-7.082-4.402-10.408-10.717-10.408-10.747 0-25.029 7.858-55.238 42.629h-.428l3.805-16.962c2.062-9.283 4.094-18.964 6.056-25.667-10.428 3.795-25.159 7.888-34.412 9.661l.139 5.339z"/><path fill="#005288" d="M683.479 239.291c-1.524-44.412 33.256-89.829 83.813-89.829 33.804 0 55.905 22.53 57.131 57.011 1.623 46.852-30.866 89.859-83.784 89.859-33.794 0-55.925-22.49-57.16-57.041m22.012 1.384c.867 26.025 17.32 47.34 38.794 47.34 41.623 0 59.312-51.095 58.087-85.238-.867-26.085-17.779-47.37-39.222-47.37-35.766 0-58.903 50.916-57.658 85.268"/><path fill="#005288" d="M657.579 266.026l-41.503.06 20.856-116.303 40.448 1.125-19.8 115.118z"/><path fill="#005288" d="M616.205 200.382c-.159 4.104-.886 7.709-2.002 13.904l-7.4 41.772c-.637 3.665.727 6.554 4.133 8.615l-.229 1.434-42.539.09-.349-10.637c-6.195 3.775-13.725 6.912-20.438 8.725-6.783 1.803-12.241 2.51-20.468 2.51-13.745 0-21.573-1.365-27.021-6.165-5.538-4.94-8.227-8.167-7.908-14.91.149-3.924 2.171-8.934 5.109-12.38 2.978-3.586 6.982-5.866 11.364-7.928 4.402-2.072 9.572-3.596 17.012-4.841 7.58-1.175 18.067-2.46 32.121-3.625 7.301-.598 11.813-2.271 13.894-3.068 2.978-1.165 4.143-2.45 4.582-4.831.747-4.213-.578-6.713-6.245-7.858-15.408-3.038-44.073 1.962-58.893 5.647l8.018-21.723c19.611-2.859 37.848-4.701 57.131-4.701 30.607 0 40.368 8.785 40.129 19.97m-43.914 27.37c-1.833.618-4.193 1.295-7.072 1.952-2.868.687-8.147 1.544-15.836 2.799-5.249.837-8.964 1.922-10.976 3.426-1.952 1.434-3.117 3.217-3.536 5.368-.418 2.291.418 4.153 2.331 5.548 2.052 1.404 5.468 2.092 10.269 2.092 3.536 0 7.022-.528 10.438-1.584 3.486-1.175 6.354-2.649 8.615-4.592 1.574-1.394 2.769-3.237 3.635-5.398.508-1.404 1.215-4.611 2.131-9.611"/><path fill="#005288" d="M450.022 182.235l2.928-16.982 42.599-9.263-4.522 26.245h20.876l-3.954 16.793-20.239-.05-12.311 67.051s-41.055-.269-41.195 0l12.241-66.891h-15.468l3.147-16.902h15.896z"/><path fill="#005288" d="M389.074 163.411c1.205-6.852 12.032-12.4 24.123-12.4 12.111 0 20.946 5.548 19.771 12.4-1.295 6.862-12.062 12.44-24.203 12.44-12.131 0-20.916-5.578-19.691-12.44m-17.032 102.678l14.771-83.375h40.736l-14.761 83.375h-40.746z"/><path fill="#005288" d="M243.945 294.851l19.84-111.721h35.766l-2.759 14.263c3.098-4.263 8.048-7.759 14.9-10.607 6.912-2.819 14.711-4.91 23.127-4.91 9.333 0 15.109.498 22.101 4.113 6.942 3.645 11.773 8.934 14.422 15.816 2.699 6.803 3.237 14.422 1.803 22.699-2.43 13.765-9.153 24.641-20.149 32.599-10.936 7.978-20.767 10.08-34.79 10.129-4.98 0-9.123-.518-12.57-1.365-3.386-.876-6.086-1.942-8.117-3.257-1.962-1.315-4.044-3.147-6.733-6.056l-6.653 38.296h-40.189zm74.202-92.598c-5.339 0-10.189 1.633-14.472 4.86-4.263 3.247-6.962 7.958-8.048 14.273-1.295 7.281-.548 12.5 2.351 15.717 2.898 3.217 7.092 4.831 12.579 4.831 3.705 0 7.57-.667 10.378-2.082 3.486-1.843 5.886-3.785 7.988-6.862 2.221-3.227 3.705-6.793 4.472-10.976 1.155-6.584.179-11.514-2.878-14.781-2.968-3.327-7.052-4.98-12.37-4.98"/><g transform="matrix(9.96 0 0 -9.96 -4295.107 7676.541)"><defs><path id="d" d="M-222.067 573.369h1452.505v358.582h-1452.505z"/></defs><clipPath id="e"><use xlink:href="#d" overflow="visible"/></clipPath><g clip-path="url(#e)"><path fill="#005288" d="M456.204 750.632c-.017-.408-.089-.768-.198-1.392l-.747-4.19c-.065-.37.073-.665.42-.863l-.024-.165-4.274.006-.036 1.068c-.625-.378-1.375-.694-2.054-.879-.677-.173-1.225-.25-2.047-.25-1.379 0-2.173.141-2.717.62-.556.495-.824.822-.796 1.5.021.391.223.893.517 1.243.295.356.698.589 1.138.793.44.212.958.364 1.713.481.757.125 1.808.248 3.219.365.738.062 1.191.232 1.404.318.294.114.409.238.453.48.079.431-.059.676-.631.789-1.538.304-4.423-.195-5.912-.568l.81 2.18c1.959.284 3.799.47 5.735.47 3.074 0 4.059-.877 4.027-2.006m-4.41-2.743c-.181-.067-.416-.132-.706-.195-.29-.066-.821-.16-1.589-.28-.528-.084-.897-.196-1.105-.345-.2-.149-.317-.326-.351-.541-.041-.228.034-.412.232-.557.203-.142.545-.215 1.023-.215.359 0 .712.059 1.053.167.346.112.637.267.862.459.165.142.284.321.371.538.05.144.122.465.21.969"/><path fill="#005288" d="M443.172 747.032c-1.334-.264-2.083-.366-3.397-.366-1.955 0-3.509.971-3.425 2.75.06 1.184 1.463 3.684 5.029 3.684 1.123 0 2.001-.199 3.181-.872l.517 2.906c-1.604.609-2.668.698-4.044.685-4.673-.051-9.164-2.177-9.72-6.498-.567-4.391 4.795-5.494 7.178-5.484 1.374.005 2.803.059 4.136.199l.545 2.996z"/></g></g></g></svg>