<svg xmlns="http://www.w3.org/2000/svg" width="374" height="164" viewBox="0 0 374 164"><g fill="#282727"><path d="M240.106 114.783c.389-.212.636-.106.812.141l1.2 2.224c.104.247 0 .528-.246.705-1.308.918-3.707 1.658-6.07 1.658-2.716 0-4.905-.846-6.422-2.363-1.518-1.482-2.366-3.671-2.366-6.245 0-2.437.919-4.481 2.366-5.964 1.376-1.411 3.387-2.258 5.928-2.258 2.929 0 4.976 1.093 6.245 2.822 1.164 1.588 1.625 3.74 1.412 6.21 0 .317-.213.53-.53.53h-10.515c.141 1.058.529 1.869 1.094 2.47.705.774 1.834 1.199 3.141 1.199 1.552 0 2.787-.425 3.951-1.129zm-1.588-5.363c-.035-.883-.281-1.553-.776-2.153-.529-.6-1.374-.987-2.399-.987-1.058 0-2.011.353-2.54.987-.493.564-.775 1.306-.882 2.153h6.597zM253.584 115.771c.389-.246.6-.67.6-1.164 0-.775-.564-1.13-1.445-1.517l-3.53-1.307c-1.799-.812-2.788-2.223-2.788-4.304 0-1.411.529-2.612 1.553-3.459 1.06-.847 2.684-1.34 4.766-1.34 2.575 0 4.129.527 5.397 1.233.354.177.354.46.213.707l-1.199 2.47c-.107.281-.354.316-.636.176-1.412-.776-2.541-1.022-3.564-1.022-.636 0-1.094.106-1.48.317-.319.247-.461.529-.461.918 0 .705.6 1.093 1.447 1.445 1.094.425 2.33.741 3.528 1.306 2.013.954 2.857 2.259 2.857 4.094 0 1.588-.74 2.965-2.045 3.882-1.166.847-2.752 1.305-4.693 1.305-2.787 0-4.517-.635-5.753-1.341-.316-.176-.388-.423-.245-.67l1.199-2.471c.105-.281.388-.353.669-.211 1.379.883 2.542 1.306 4.059 1.306.632 0 1.164-.105 1.551-.353zM268.333 112.807c0 .776.106 1.377.352 1.835.282.564.813.846 1.623.846.671 0 1.448-.209 2.295-.881.317-.247.635-.211.74.07l1.235 2.612c.142.247.035.529-.212.705-1.306.917-3.212 1.517-5.292 1.517-2.012 0-3.318-.6-4.129-1.553-.953-1.199-1.271-2.857-1.271-4.516v-6.775h-1.765c-.283 0-.53-.246-.53-.564v-2.575c0-.319.247-.53.53-.53h1.765v-3.176c0-.316.247-.529.53-.529h3.599c.317 0 .529.213.529.529v3.176h4.445c.317 0 .529.211.529.53v2.575c0 .318-.212.564-.529.564h-4.445v6.14zM278.211 102.997h3.6c.282 0 .529.211.529.53v15.103c0 .281-.247.528-.529.528h-3.6c-.318 0-.529-.247-.529-.528v-15.103c0-.319.211-.53.529-.53zM292.254 104.409c.282-.389.671-.742 1.129-.988.884-.494 1.835-.705 2.858-.705 1.094 0 2.152.211 3.07.67.847.423 1.518.988 1.976 1.658.493-.566 1.199-1.235 2.152-1.693.847-.424 1.906-.635 3.07-.635 1.694 0 3.354.458 4.552 1.586 1.095.989 1.766 2.612 1.766 4.941v9.387c0 .281-.247.528-.531.528h-3.599c-.317 0-.528-.247-.528-.528v-8.363c0-1.094-.177-2.188-.706-2.895-.388-.493-1.024-.882-2.047-.882-1.059 0-1.801.529-2.223 1.271-.46.881-.636 2.046-.636 3.423v7.445c0 .281-.247.528-.529.528h-3.599c-.318 0-.53-.247-.53-.528v-8.363c0-1.094-.177-2.188-.705-2.895-.39-.493-1.023-.882-2.048-.882-1.058 0-1.799.529-2.222 1.271-.424.74-.636 1.764-.636 2.999v7.869c0 .281-.246.528-.528.528h-3.601c-.316 0-.529-.247-.529-.528v-15.103c0-.319.213-.53.529-.53h3.457c.282 0 .53.211.53.53v.882h.108zM319.527 104.903c1.555-1.412 3.707-2.223 6.07-2.223s4.551.811 6.104 2.223c1.658 1.447 2.646 3.634 2.646 6.21 0 2.575-.987 4.764-2.646 6.211-1.554 1.411-3.741 2.187-6.104 2.187s-4.516-.775-6.07-2.187c-1.658-1.447-2.683-3.636-2.683-6.211.001-2.576 1.025-4.762 2.683-6.21zm3.142 9.563c.741.775 1.764 1.271 2.929 1.271 1.163 0 2.188-.495 2.929-1.271.74-.846 1.198-2.011 1.198-3.353 0-1.341-.458-2.541-1.198-3.387-.741-.777-1.766-1.236-2.929-1.236-1.165 0-2.188.459-2.929 1.236-.74.846-1.2 2.046-1.2 3.387 0 1.342.46 2.507 1.2 3.353zM343.91 112.807c0 .776.104 1.377.353 1.835.281.564.811.846 1.623.846.67 0 1.446-.209 2.293-.881.317-.247.634-.211.741.07l1.235 2.612c.141.247.034.529-.213.705-1.306.917-3.21 1.517-5.292 1.517-2.012 0-3.316-.6-4.129-1.553-.953-1.199-1.27-2.857-1.27-4.516v-6.775h-1.766c-.282 0-.529-.246-.529-.564v-2.575c0-.319.247-.53.529-.53h1.766v-3.176c0-.316.245-.529.527-.529h3.601c.317 0 .53.213.53.529v3.176h4.444c.317 0 .53.211.53.53v2.575c0 .318-.213.564-.53.564h-4.444v6.14zM365.009 114.783c.388-.212.637-.106.813.141l1.2 2.224c.105.247 0 .528-.247.705-1.308.918-3.707 1.658-6.07 1.658-2.716 0-4.905-.846-6.423-2.363-1.518-1.482-2.364-3.671-2.364-6.245 0-2.437.918-4.481 2.364-5.964 1.377-1.411 3.388-2.258 5.929-2.258 2.929 0 4.978 1.093 6.245 2.822 1.165 1.588 1.625 3.74 1.412 6.21 0 .317-.211.53-.529.53h-10.516c.141 1.058.529 1.869 1.095 2.47.705.774 1.834 1.199 3.14 1.199 1.551 0 2.788-.425 3.951-1.129zm-1.587-5.363c-.035-.883-.283-1.553-.777-2.153-.528-.6-1.376-.987-2.398-.987-1.059 0-2.013.353-2.54.987-.495.564-.778 1.306-.884 2.153h6.599zM277.289 97.37c0-1.513 1.188-2.734 2.736-2.734 1.512 0 2.699 1.222 2.699 2.734s-1.188 2.736-2.699 2.736c-1.548 0-2.736-1.224-2.736-2.736"/></g><path fill="#E7DC00" stroke="#E7DC00" stroke-linecap="round" stroke-linejoin="round" d="M146.304 160.154l2.659-2.484 37.121-24.115 7.848 1.027z"/><g stroke-linecap="round" stroke-linejoin="round"><path fill="#B5AF16" stroke="#B5AF16" d="M148.801 135.86l-8.999-7.182 15.825-21.75 12.415 2.836z"/><path fill="#DDD300" stroke="#DDD300" d="M148.92 157.67l-.119-21.81 19.241-26.096 31.299-6.826 1.182 6.572-14.482 24.045z"/><path fill="#ABA51C" stroke="#ABA51C" d="M129.236 130.304l10.566-1.626 15.825-21.75-32.362-11.705 2.424 18.293z"/><path fill="#D3C900" stroke="#D3C900" d="M135.265 151.643l-6.029-21.339 10.566-1.626 8.999 7.182.119 21.81-2.661 2.484z"/></g><path fill="#F2E500" stroke="#F2E500" d="M193.889 134.582l3.694-4.278 2.94-20.794-14.482 24.045z"/><g stroke-linecap="round" stroke-linejoin="round"><path fill="#84A68C" stroke="#84A68C" d="M156.87 76.112l-.71 30.856 12.414 2.839 25.891-24.119-21.281-11.705z"/><path fill="#A4C8A9" stroke="#A4C8A9" d="M237.379 79.569l5.32-5.851-42.295-43.358-13.831 6.117-13.389 37.506 21.281 11.705z"/><path fill="#ACD0B1" stroke="#ACD0B1" d="M199.873 102.977l-31.299 6.83 25.891-24.119 42.914-6.119-16.758 11.971z"/><path fill="#96B89C" stroke="#96B89C" d="M156.87 76.112l-23.231-3.99-9.843 23.142 32.364 11.704z"/><path fill="#B7D6BB" stroke="#B7D6BB" d="M186.573 36.477l-37.24 5.321-15.694 30.324 23.231 3.99 16.314-2.129z"/><path fill="#CEE2CF" stroke="#CEE2CF" d="M151.727 37.275l30.856-6.915h17.821l-13.831 6.117-37.24 5.321z"/></g><g stroke-linecap="round" stroke-linejoin="round"><path fill="#4C3E91" stroke="#4C3E91" d="M149.333 41.798l-50.244-31.804-13.833 18.088 10.641 28.213 37.742 15.827z"/><path fill="#3B3188" stroke="#3B3188" d="M123.796 95.264l-26.126-9.576-5.851-4.761 4.078-24.632 37.742 15.827z"/><path fill="#5F509D" stroke="#5F509D" d="M149.333 41.798l2.394-4.523-7.418-9.371-25.535-14.364-17.202-4.965-2.483 1.419z"/><path fill="#685BA4" stroke="#685BA4" d="M91.819 80.927l4.078-24.632-10.641-28.213-4.964 10.462z"/></g><path fill="#B2E0F9" stroke="#B2E0F9" stroke-linecap="round" stroke-linejoin="round" d="M73.109 63.105l7.183-24.561 11.527 42.383-4.345-.799z"/><path fill="#D3ECFB" stroke="#D3ECFB" stroke-linecap="round" stroke-linejoin="round" d="M71.248 55.39l9.044-16.846-7.183 24.561z"/><path fill="#7AC8ED" stroke="#7AC8ED" stroke-linecap="round" stroke-linejoin="round" d="M91.287 84.473l-3.813-4.345 4.345.799 5.851 4.761z"/><path fill="#F7C9E0" stroke="#F7C9E0" stroke-linecap="round" stroke-linejoin="round" d="M56.884 72.946l16.225-9.974 14.365 17.024-26.733 4.254z"/><path fill="#F5B5D3" stroke="#F5B5D3" stroke-linecap="round" stroke-linejoin="round" d="M63.401 102.938l-2.66-18.553 26.733-4.257 3.813 4.345-16.848 26.644z"/><path fill="#E88CB6" stroke="#E88CB6" d="M120.472 94.045l-22.802-8.357-6.383-1.215-16.848 26.644 8.024 10.278 16.626 7.283 2.837-2.709z"/><path fill="#F9D4E6" stroke="#F9D4E6" d="M71.248 55.39l-7.049-2.261-14.365 9.976 7.05 9.975 16.225-9.975z"/><path fill="#FADDEB" stroke="#FADDEB" d="M71.248 55.39l-7.049-2.261h8.262z"/><path fill="#DE7BA7" stroke="#DE7BA7" d="M60.741 104.467l2.66-1.529 11.038 8.179 8.024 10.278z"/><path fill="#751C52" stroke="#751C52" stroke-linecap="round" stroke-linejoin="round" d="M56.817 72.894l-48.146.903-2.128 23.461 18.886 23.948 35.245-37.007z"/><path fill="#681948" stroke="#681948" stroke-width=".75" stroke-linecap="round" stroke-linejoin="round" d="M30.55 126.189l-5.054-5.019 35.245-37.008 2.66 18.552z"/><path fill="#8B1E62" stroke="#8B1E62" stroke-linecap="round" stroke-linejoin="round" d="M49.769 62.972l7.048 9.974-48.146.905 3.458-4.495z"/><path fill="#A11B72" stroke="#A11B72" stroke-linecap="round" stroke-linejoin="round" d="M25.496 121.17l-18.953-23.912 13.73 25.636z"/><path fill="#931E67" stroke="#931E67" stroke-linecap="round" stroke-linejoin="round" d="M30.55 126.189h-7.315l-2.962-3.295 5.223-1.724z"/></svg>