<?xml version="1.0" encoding="UTF-8" standalone="no"?>
<!-- Created with Inkscape (http://www.inkscape.org/) -->

<svg
   xmlns:dc="http://purl.org/dc/elements/1.1/"
   xmlns:cc="http://creativecommons.org/ns#"
   xmlns:rdf="http://www.w3.org/1999/02/22-rdf-syntax-ns#"
   xmlns:svg="http://www.w3.org/2000/svg"
   xmlns="http://www.w3.org/2000/svg"
   xmlns:xlink="http://www.w3.org/1999/xlink"
   xmlns:sodipodi="http://sodipodi.sourceforge.net/DTD/sodipodi-0.dtd"
   xmlns:inkscape="http://www.inkscape.org/namespaces/inkscape"
   width="1024"
   height="1024"
   id="svg2"
   version="1.1"
   inkscape:version="0.48.5 r10040"
   sodipodi:docname="HackTheBurgh-round.svg"
   inkscape:export-filename="/home/anguspearson/Dropbox/HackTheBurgh-round.png"
   inkscape:export-xdpi="180"
   inkscape:export-ydpi="180">
  <defs
     id="defs4" />
  <sodipodi:namedview
     id="base"
     pagecolor="#ffffff"
     bordercolor="#666666"
     borderopacity="1.0"
     inkscape:pageopacity="0.0"
     inkscape:pageshadow="2"
     inkscape:zoom="0.70710678"
     inkscape:cx="86.584553"
     inkscape:cy="491.32119"
     inkscape:document-units="px"
     inkscape:current-layer="layer1"
     showgrid="false"
     inkscape:window-width="1920"
     inkscape:window-height="952"
     inkscape:window-x="0"
     inkscape:window-y="28"
     inkscape:window-maximized="1" />
  <metadata
     id="metadata7">
    <rdf:RDF>
      <cc:Work
         rdf:about="">
        <dc:format>image/svg+xml</dc:format>
        <dc:type
           rdf:resource="http://purl.org/dc/dcmitype/StillImage" />
        <dc:title />
      </cc:Work>
    </rdf:RDF>
  </metadata>
  <g
     inkscape:label="Layer 1"
     inkscape:groupmode="layer"
     id="layer1">
    <path
       inkscape:connector-curvature="0"
       style="fill:#000000;stroke:none;stroke-width:4.01544236999999971;stroke-miterlimit:4;stroke-opacity:1;stroke-dasharray:none;fill-opacity:1"
       d="M 512.00001,2.0076781 C 230.33904,2.0076781 2.0077211,230.33901 2.0077211,511.99998 c 0,281.66097 228.3313189,509.99222 509.9922889,509.99222 281.66097,0 509.99219,-228.33125 509.99219,-509.99222 0,-281.66097 -228.33122,-509.9923019 -509.99219,-509.9923019 z m 0.53125,17.0661489 c 272.27225,0 492.99264,220.720303 492.99264,492.992563 0,272.27226 -220.72039,492.99261 -492.99264,492.99261 -272.27225,0 -492.992554,-220.72035 -492.992554,-492.99261 0,-272.27226 220.720304,-492.992563 492.992554,-492.992563 z"
       id="path2997-0" />
    <flowRoot
       xml:space="preserve"
       id="flowRoot3845"
       style="fill:black;stroke:none;stroke-opacity:1;stroke-width:1px;stroke-linejoin:miter;stroke-linecap:butt;fill-opacity:1;font-family:Keep Calm;font-style:normal;font-weight:500;font-size:150px;line-height:100%;letter-spacing:-5.28000000000000025px;word-spacing:0px;-inkscape-font-specification:Keep Calm Medium;font-stretch:normal;font-variant:normal"><flowRegion
         id="flowRegion3847"><rect
           id="rect3849"
           width="134"
           height="584"
           x="402"
           y="-232" /></flowRegion><flowPara
         id="flowPara3851" /></flowRoot>    <path
       style="font-size:medium;font-style:normal;font-variant:normal;font-weight:normal;font-stretch:normal;text-indent:0;text-align:start;text-decoration:none;line-height:normal;letter-spacing:normal;word-spacing:normal;text-transform:none;direction:ltr;block-progression:tb;writing-mode:lr-tb;text-anchor:start;baseline-shift:baseline;color:#000000;fill:#000000;fill-opacity:1;stroke:none;stroke-width:27.68867874;marker:none;visibility:visible;display:inline;overflow:visible;enable-background:accumulate;font-family:Sans;-inkscape-font-specification:Sans"
       d="m 555.9322,193.22185 -7.87544,-0.99507 -0.15477,-0.0214 -0.21669,-0.03 -2.64403,-0.27124 -2.9321,29.62773 2.24161,0.21556 0.40242,0.0557 7.10585,0.85699 0.18573,0.0257 0.18573,0.0257 7.07158,1.10463 0.40242,0.0557 7.39068,1.30652 5.06047,1.04721 5.92619,-29.15036 -5.43194,-1.09861 -0.21241,-0.0609 -0.15478,-0.0214 -7.75785,-1.38887 -0.21669,-0.03 -0.15477,-0.0214 -7.84975,-1.18075 -0.18573,-0.0257 z m -77.58923,-1.27113 -3.13211,0.29223 -0.19001,0.005 -0.19,0.005 -7.52189,1.00986 -0.19001,0.005 -0.16334,0.0405 -7.47711,1.14224 -0.19001,0.005 -0.16334,0.0405 -7.43662,1.30558 -0.16334,0.0405 -0.1943,0.0362 -5.97413,1.224 5.9047,29.14683 6.00509,-1.21972 6.69466,-1.1874 0.32669,-0.081 0.0309,0.004 6.73517,-1.02406 0.35335,-0.0457 0.0309,0.004 6.80661,-0.85644 0.35335,-0.0457 2.75637,-0.31267 z m 163.66371,25.57887 -12.32591,27.06607 6.50077,2.95006 0.32337,0.17093 6.12074,2.96058 6.36508,3.24677 0.14193,0.11423 0.20812,0.0919 5.92314,3.24872 0.2348,0.12708 0.0576,0.0395 1.3116,0.78088 14.91719,-25.72955 -1.63498,-0.95182 -0.14621,-0.0833 -0.14621,-0.0833 -6.59656,-3.62582 -0.14621,-0.0833 -0.17716,-0.0876 -6.68417,-3.44866 -0.17716,-0.0876 -0.14621,-0.0833 -6.80273,-3.27578 -0.14621,-0.0833 -0.18145,-0.0566 z m -260.39364,0.21958 -4.20774,1.91007 -0.16762,0.0714 -0.13667,0.0757 -6.71685,3.17184 -0.13667,0.0757 -0.16761,0.0714 -6.5835,3.34803 -0.16762,0.0714 -0.17191,0.10241 -6.50776,3.4847 -0.13666,0.0757 -0.17191,0.10241 -4.48342,2.53443 14.68931,25.85097 4.17485,-2.35629 0.30857,-0.17814 5.86394,-3.16366 0.33953,-0.17386 5.96635,-2.99175 0.30858,-0.17814 6.04207,-2.85508 0.33525,-0.1429 3.83726,-1.74051 z m 344.26082,53.72153 -19.59452,22.36928 0.64772,0.56283 0.24862,0.25524 4.92985,4.49938 0.27957,0.25951 4.78461,4.63703 4.92752,4.97227 0.08,0.10566 0.19527,0.18475 4.53795,4.82373 0.27529,0.29047 0.54629,0.6119 22.12019,-19.87458 -0.7949,-0.86713 -0.10669,-0.14095 -0.14194,-0.11423 -5.05756,-5.40039 -0.11098,-0.10995 -0.13764,-0.14523 -5.17613,-5.22751 -0.13765,-0.14523 -0.11098,-0.10995 -5.31708,-5.12082 -0.13764,-0.14523 -0.14194,-0.11423 -5.42708,-5.00985 -0.14193,-0.11423 -0.11098,-0.10995 z m -428.30085,0.52209 -3.49519,3.14438 -0.14096,0.10669 -0.11423,0.14193 -5.40038,5.05757 -0.10995,0.11098 -0.14524,0.13764 -5.2275,5.17613 -0.14524,0.13765 -0.10995,0.11098 -5.12081,5.31708 -0.14524,0.13764 -0.11423,0.14194 -3.44847,3.7187 21.88549,20.12699 3.19323,-3.47009 0.25952,-0.27957 4.63702,-4.78461 4.97228,-4.92752 0.10565,-0.08 0.18476,-0.19527 4.82373,-4.53795 0.29047,-0.27529 3.23996,-2.89577 z m -63.45388,77.37715 -2.69736,4.67442 -0.0833,0.14621 -0.0833,0.14621 -3.62582,6.59656 -0.0833,0.14621 -0.0876,0.17716 -3.44865,6.68417 -0.0876,0.17716 -0.0833,0.14621 -3.27577,6.80273 -0.0833,0.14621 -0.0566,0.18145 -1.66787,3.61806 27.07035,12.29495 1.49694,-3.29468 0.17093,-0.32337 2.96058,-6.12074 3.24677,-6.36508 0.11423,-0.14193 0.0919,-0.20812 3.24871,-5.92314 0.11852,-0.17289 0.048,-0.11954 2.53072,-4.382 z m 541.20268,289.78521 -1.80454,3.69379 -3.24677,6.36507 -0.0833,0.14621 -0.1228,0.20384 -3.24871,5.92314 -0.1228,0.20384 -0.0437,0.0885 -3.3992,5.87077 -0.17094,0.32337 -2.40028,3.89529 25.36102,15.52869 2.57121,-4.21866 0.0833,-0.14621 0.0833,-0.14621 3.77203,-6.51323 0.0833,-0.14621 0.0833,-0.14621 3.62582,-6.59655 0.0833,-0.14621 0.0876,-0.17717 3.44866,-6.68416 0.0876,-0.17717 0.0833,-0.14621 1.94023,-3.99048 z m -531.93307,-11.57684 -27.39426,11.47875 0.29008,0.63954 0.0362,0.1943 0.0757,0.13666 3.03945,6.76164 0.0714,0.16762 0.0757,0.13666 3.17184,6.71686 0.0757,0.13666 0.0714,0.16762 3.34803,6.5835 0.0714,0.16762 0.10241,0.1719 3.4847,6.50777 0.0757,0.13666 0.10241,0.17191 0.784,1.40193 25.84669,-14.65836 -0.60158,-1.12431 -0.17814,-0.30858 -3.16366,-5.86394 -0.17386,-0.33953 -2.99175,-5.96634 -0.17814,-0.30858 -2.85508,-6.04208 -0.1429,-0.33525 -2.75366,-6.09113 -0.1429,-0.33525 z m 480.25361,86.16645 -3.50181,3.64824 -4.97228,4.92751 -0.10565,0.08 -0.18476,0.19528 -4.82373,4.53794 -0.29047,0.27529 -4.9347,4.42795 -0.21143,0.16003 -0.0705,0.0534 -3.0776,2.6343 19.33744,22.58219 3.3595,-2.84768 0.10995,-0.11098 0.14095,-0.10669 5.47612,-4.9209 0.14095,-0.10669 0.11423,-0.14193 5.40039,-5.05757 0.10995,-0.11098 0.14524,-0.13764 5.23178,-5.20708 0.14096,-0.10669 0.10994,-0.11098 3.76133,-3.9278 z m -431.82684,-9.33544 -22.64409,19.32888 0.60391,0.65142 0.11098,0.10994 0.10669,0.14096 4.9209,5.47612 0.10669,0.14095 0.14193,0.11423 5.05757,5.40039 0.11098,0.10995 0.13764,0.14523 5.17613,5.22751 0.13764,0.14523 0.11098,0.10995 5.31708,5.12082 0.13765,0.14523 0.14193,0.11423 1.14923,1.04235 20.09176,-21.85881 -0.86538,-0.81379 -0.27957,-0.25952 -4.78462,-4.63702 -4.92751,-4.97227 -0.08,-0.10566 -0.19527,-0.18476 -4.53795,-4.82372 -0.27528,-0.29048 -4.42796,-4.9347 -0.13764,-0.14523 -0.0757,-0.13666 z m 359.76351,64.57369 -4.50153,2.43729 -0.33953,0.17385 -5.96635,2.99176 -0.30857,0.17814 -6.04208,2.85508 -0.33525,0.1429 -6.09114,2.75365 -0.33525,0.1429 -3.58202,1.49189 11.47446,27.42521 3.92156,-1.66574 0.1943,-0.0362 0.13666,-0.0757 6.76164,-3.03945 0.16762,-0.0714 0.13666,-0.0757 6.71686,-3.17184 0.13666,-0.0757 0.16762,-0.0714 6.5835,-3.34803 0.16761,-0.0714 0.17191,-0.10241 4.83682,-2.58048 z m -290.25792,-6.24705 -15.52869,25.36102 1.22302,0.73707 0.14621,0.0833 0.14621,0.0833 6.51323,3.77202 0.14621,0.0833 0.14621,0.0833 6.59656,3.62582 0.14621,0.0833 0.17716,0.0876 6.68417,3.44865 0.17716,0.0876 0.14621,0.0833 6.80273,3.27577 0.14621,0.0833 0.18145,0.0566 0.41624,0.18378 12.29067,-27.03939 -0.0885,-0.0438 -0.32337,-0.17093 -6.12074,-2.96058 -6.36508,-3.24677 -0.14193,-0.11423 -0.20812,-0.0919 -5.92314,-3.24871 -0.20384,-0.1228 -0.0885,-0.0438 -5.87077,-3.39921 -0.32337,-0.17093 z m 204.83595,36.73333 -6.14702,1.10544 -0.32668,0.081 -0.0309,-0.004 -6.73516,1.02406 -0.35335,0.0457 -0.0309,-0.004 -6.80662,0.85644 -0.35334,0.0457 -7.20047,0.73885 -2.20015,0.1688 2.26972,29.65341 2.58017,-0.17931 0.1943,-0.0362 0.15905,-0.009 7.58478,-0.78032 0.19,-0.005 0.19001,-0.005 7.52189,-1.00986 0.19001,-0.005 0.16334,-0.0405 7.47711,-1.14224 0.19001,-0.005 0.16334,-0.0405 6.50465,-1.18215 z m -120.86211,-2.71562 -6.66054,28.98566 4.64521,1.0844 0.15478,0.0214 0.21668,0.03 7.67025,1.56604 0.21241,0.0609 0.15478,0.0214 7.75785,1.38888 0.21669,0.03 0.15477,0.0214 7.84975,1.18071 0.18573,0.0257 0.18574,0.0257 3.5022,0.45308 3.67502,-29.52493 -3.10407,-0.3664 -0.15478,-0.0214 -0.21668,-0.03 -7.07159,-1.10464 -0.40242,-0.0557 -7.39067,-1.30652 -6.93589,-1.40133 -0.33623,-0.078 -0.0309,-0.004 z"
       id="path3889"
       inkscape:connector-curvature="0"
       sodipodi:nodetypes="cccccccccccccccccccccccccccccccccccccccccccccccccccccccccccccccccccccccccccccccccccccccccccccccccccccccccccccccccccccccccccccccccccccccccccccccccccccccccccccccccccccccccccccccccccccccccccccccccccccccccccccccccccccccccccccccccccccccccccccccccccccccccccccccccccccccccccccccccccccccccccccccccccccccccccccccccccccccccccccccccccccccccccccccccccccccccccccccccccccccccccccccccccccccccccccccccccccccccccccccccccc" />
    <g
       id="g4053"
       transform="matrix(0.9994074,-0.03442166,0.03442166,0.9994074,-17.328591,17.702818)"
       style="stroke:none;stroke-opacity:1">
      <path
         inkscape:connector-curvature="0"
         id="path4016"
         d="M 179.18056,345.84246 C 270.9468,162.03135 494.34642,87.414263 678.15753,179.18055 861.96866,270.9468 936.58574,494.34641 844.81946,678.15754 753.0532,861.96867 529.6536,936.58575 345.84246,844.81946 162.03134,753.05319 87.414272,529.65359 179.18056,345.84246 z"
         style="fill:none;stroke:none;stroke-width:2.32494210999999984;stroke-opacity:1" />
      <text
         sodipodi:linespacing="100%"
         id="text4046"
         style="font-size:150px;font-style:normal;font-variant:normal;font-weight:normal;font-stretch:normal;line-height:100%;letter-spacing:-5.28000020999999986px;word-spacing:0px;fill:#000000;fill-opacity:1;stroke:none;font-family:Roboto Slab;-inkscape-font-specification:Roboto Slab;stroke-opacity:1"
         xml:space="preserve"><textPath
           style="font-size:100px;letter-spacing:-8px;stroke:none;stroke-opacity:1"
           id="textPath4050"
           xlink:href="#path4016">~ MAJOR  LEAGUE ~</textPath></text>
    </g>
    <g
       id="g4133">
      <text
         xml:space="preserve"
         style="font-size:173.97337341px;font-style:normal;font-variant:normal;font-weight:500;font-stretch:normal;line-height:100%;letter-spacing:-6.12386274px;word-spacing:0px;fill:#000000;fill-opacity:1;stroke:none;font-family:Keep Calm;-inkscape-font-specification:Keep Calm Medium"
         x="-105.37443"
         y="616.59784"
         id="text3853"
         sodipodi:linespacing="100%"
         transform="matrix(0.96592583,-0.25881905,0.25881905,0.96592583,0,0)"><tspan
           sodipodi:role="line"
           id="tspan3855"
           x="-105.37443"
           y="616.59784"
           style="font-size:170px">HACK</tspan></text>
      <text
         xml:space="preserve"
         style="font-size:150px;font-style:normal;font-variant:normal;font-weight:500;font-stretch:normal;line-height:100%;letter-spacing:-5.28000021px;word-spacing:0px;fill:#000000;fill-opacity:1;stroke:none;font-family:Keep Calm;-inkscape-font-specification:Keep Calm Medium"
         x="418.73404"
         y="615.38629"
         id="text3857"
         sodipodi:linespacing="100%"
         transform="matrix(0.96592583,-0.25881905,0.25881905,0.96592583,0,0)"><tspan
           sodipodi:role="line"
           id="tspan3859"
           x="418.73404"
           y="615.38629"
           style="font-size:120px">THE</tspan></text>
      <text
         xml:space="preserve"
         style="font-size:178.62722778px;font-style:normal;font-variant:normal;font-weight:500;font-stretch:normal;line-height:100%;letter-spacing:-6.28767872px;word-spacing:0px;fill:#000000;fill-opacity:1;stroke:none;font-family:Keep Calm;-inkscape-font-specification:Keep Calm Medium"
         x="214.40114"
         y="767.95819"
         id="text3861"
         sodipodi:linespacing="100%"
         transform="matrix(0.96592583,-0.25881905,0.25881905,0.96592583,0,0)"><tspan
           sodipodi:role="line"
           id="tspan3863"
           x="214.40114"
           y="767.95819"
           style="font-size:170px">BURGH</tspan></text>
    </g>
    <g
       id="g3894"
       style="stroke:none">
      <path
         inkscape:connector-curvature="0"
         id="path4016-2"
         d="m 113.14128,711.35367 c 58.45366,118.31381 172.11158,207.47049 300.82167,235.55171 121.05923,27.7115 252.98792,1.90125 354.15538,-70.14718 C 871.59203,804.80769 941.69599,687.20354 954.95585,561.74775 969.72319,437.42127 928.441,308.07222 844.66091,215.20924 761.76728,121.06786 637.67543,65.468436 512.02595,65.998381 382.53121,65.056575 254.59883,124.87315 171.62445,223.79516 85.17823,324.46791 48.553833,464.62452 73.819638,595.0894 c 7.556853,40.29928 20.858335,79.53199 39.321642,116.26427 z"
         style="fill:none;stroke:none;stroke-width:2.80845880999999986;stroke-opacity:1" />
      <text
         sodipodi:linespacing="100%"
         id="text4094"
         style="font-size:150px;font-style:normal;font-variant:normal;font-weight:normal;font-stretch:normal;line-height:100%;letter-spacing:-5.28000020999999986px;word-spacing:0px;fill:#000000;fill-opacity:1;stroke:none;font-family:Roboto Slab;-inkscape-font-specification:Roboto Slab"
         xml:space="preserve"><textPath
           style="font-size:100px;font-style:normal;font-variant:normal;font-weight:normal;font-stretch:normal;letter-spacing:10px;font-family:Roboto Slab;-inkscape-font-specification:Roboto Slab;stroke:none"
           id="textPath4103"
           xlink:href="#path4016-2">~ HACKING 2015 ~</textPath></text>
    </g>
    <flowRoot
       xml:space="preserve"
       id="flowRoot4106"
       style="fill:black;stroke:none;stroke-opacity:1;stroke-width:1px;stroke-linejoin:miter;stroke-linecap:butt;fill-opacity:1;font-family:Roboto Slab;font-style:normal;font-weight:normal;font-size:150px;line-height:100%;letter-spacing:-5.28000000000000025px;word-spacing:0px;-inkscape-font-specification:Roboto Slab;font-stretch:normal;font-variant:normal"><flowRegion
         id="flowRegion4108"><rect
           id="rect4110"
           width="666"
           height="1546"
           x="-604"
           y="-1302" /></flowRegion><flowPara
         id="flowPara4112" /></flowRoot>  </g>
</svg>
