<svg xmlns="http://www.w3.org/2000/svg" width="783.75" height="245.25" viewBox="0 0 783.75 245.25"><g clip-rule="evenodd"><path d="M.75 246v-245.25h783.75v245.25h-783.75zm5.134-23.223c2.323 12.094 10.863 19.292 23.034 19.297 47.356.022 94.713-.136 142.068.127 12.188.067 23.549-9.945 23.483-23.51-.303-62.6-.13-125.2-.15-187.801-.005-13.302-9.361-22.721-22.572-22.726-47.732-.016-95.463-.015-143.194.008-12.14.006-20.788 7.508-22.674 19.538-.916 1.072-.625 2.368-.625 3.589-.006 62.507-.003 125.014.021 187.519.001 1.331-.391 2.765.609 3.959zm254.456-31.482v-4.56c0-21.997.05-43.994-.069-65.99-.014-2.564.736-3.747 3.129-4.599 8.276-2.947 16.673-5.168 25.52-5.285 7.824-.103 10.105 2.14 10.104 9.891-.002 22.247-.007 44.494.014 66.74 0 1.209-.36 2.502.578 3.759h19.456c.19-.454.365-.677.365-.9.017-24.495.271-48.993-.087-73.483-.166-11.356-6.008-19.007-15.477-21.989-8.227-2.591-16.572-1.443-24.841-.082-6.247 1.028-12.27 3.031-18.814 5.185v-44.419h-20.101v135.733c6.808-.001 13.266-.001 20.223-.001zm344.593-136.054v136.419c6.035 0 11.771-.125 17.496.057 2.623.082 3.149-1.022 3.121-3.317-.092-7.373-.036-14.748-.037-22.122-.001-6.092 0-12.185 0-18.208 9.299-1.582 10.918-1.035 16.199 5.829 8.131 10.566 14.353 22.201 19.21 34.598.443 1.133.357 2.947 2.323 2.95 7.561.011 15.12.005 23.236.005-9.286-19.439-20.176-37.113-33.015-53.868 11.777-12.472 21.609-25.982 29.16-41.673-7.207 0-13.822.108-20.431-.06-2.259-.058-3.312.743-4.198 2.735-4.902 11.011-11.438 20.973-18.857 30.492-3.93 5.043-8.38 4.66-13.802 3.943v-77.781c-6.932.001-13.521.001-20.405.001zm-246.462 91.732h62.891c-.004-11.551.376-22.768-3.311-33.579-3.574-10.482-11.007-17.064-21.821-18.821-17.257-2.803-34.315-.946-51.08 3.854-1.697.485-2.738 1.386-3.16 3.224-4.96 21.648-6.197 43.5-2.737 65.438 2.114 13.407 9.738 22.512 23.493 25.405 18.715 3.938 36.381-.009 53.511-7.549.981-.431 1.808-.967 1.454-2.217-1.301-4.6-1.671-9.446-3.451-14.084-1.908.659-3.547 1.233-5.191 1.79-11.408 3.859-22.975 6.757-35.18 5.794-6.308-.498-10.914-3.384-13.013-9.532-2.116-6.202-2.658-12.622-2.405-19.723zm138.427-1.877c.313 6.729.646 13.814 2.529 20.747 3.751 13.809 12.046 22.942 26.247 26.342 8.111 1.942 16.297 2.348 24.512 1.301 14.979-1.909 26.475-9.027 31.941-23.586 6.547-17.435 6.308-35.247.615-52.827-3.884-11.994-12.674-19.109-24.911-21.944-8.976-2.08-18.018-2.271-27.097-.76-14.532 2.419-24.482 10.489-29.771 24.253-3.228 8.402-3.855 17.229-4.065 26.474zm202.88-49.041c-.1.903-.224 1.501-.225 2.1-.023 23.736-.12 47.473-.001 71.208.036 7.19 2.093 13.765 7.689 18.833 5.501 4.98 12.257 5.998 19.197 5.859 18.139-.363 35.198-4.844 51.091-13.773 2.11-1.186 2.735-2.26 2.729-4.516-.069-25.236-.041-50.473-.039-75.708v-3.902h-20.623v73.542c-3.628 1.375-6.993 2.577-10.438 3.624-5.998 1.821-12.202 2.207-18.313 3.255-6.657 1.141-10.818-1.805-10.825-8.516-.021-22.611-.001-45.225-.027-67.837-.001-1.333.354-2.736-.486-4.168-6.4-.001-12.852-.001-19.729-.001zm-239.8 95.216v-3.815c-.004-22.116.037-44.232-.07-66.348-.013-2.838.845-4.211 3.636-5.05 6.615-1.989 13.346-3.077 20.203-3.611 1.371-.107 3.448.396 3.517-1.803.162-5.195.052-10.398.052-15.907-16.188 1.317-31.23 4.726-45.377 11.779-2.242 1.118-2.906 2.425-2.896 4.886.104 24.489.049 48.979.085 73.47.003 2.078-.329 4.206.392 6.399h20.458z" fill="none"/><path fill-rule="evenodd" fill="#6964A5" d="M5.879 27.71c1.886-12.03 10.534-19.532 22.674-19.538 47.731-.022 95.462-.023 143.193-.007 13.211.004 22.567 9.424 22.572 22.726.02 62.601-.152 125.201.15 187.801.066 13.564-11.295 23.577-23.483 23.51-47.355-.263-94.712-.104-142.068-.127-12.171-.005-20.711-7.203-23.034-19.296.036-.745.104-1.491.104-2.237.003-56.917.003-113.833-.007-170.748-.001-7.361-.066-14.722-.101-22.084zm7.637 97.151c0 30.612-.01 61.223.005 91.834.005 11.319 6.063 17.438 17.269 17.44 45.979.013 91.96-.208 137.938.154 11.714.093 18.098-8.614 18.06-18.171-.243-60.847-.125-121.694-.121-182.543 0-11.133-6.489-17.731-17.54-17.734-46.104-.014-92.209-.009-138.313-.017-10.682-.002-17.294 6.549-17.297 17.203-.007 30.613-.003 61.223-.001 91.834zM260.34 191.295h-20.224v-135.733h20.101v44.419c6.544-2.153 12.567-4.156 18.814-5.185 8.269-1.361 16.614-2.509 24.841.082 9.468 2.982 15.311 10.633 15.477 21.989.357 24.49.104 48.988.087 73.483 0 .224-.175.446-.365.9h-19.456c-.938-1.257-.577-2.55-.578-3.759-.021-22.246-.017-44.493-.014-66.74.001-7.751-2.28-9.994-10.104-9.891-8.847.117-17.243 2.338-25.52 5.285-2.393.853-3.143 2.035-3.129 4.599.119 21.996.068 43.993.069 65.99l.001 4.561zM604.933 55.241h20.406v77.781c5.422.717 9.872 1.1 13.802-3.943 7.419-9.519 13.955-19.481 18.857-30.492.887-1.992 1.939-2.793 4.198-2.735 6.608.168 13.224.06 20.431.06-7.551 15.69-17.383 29.201-29.16 41.673 12.839 16.755 23.729 34.429 33.015 53.868-8.116 0-15.676.006-23.236-.005-1.966-.003-1.88-1.817-2.323-2.95-4.857-12.396-11.079-24.031-19.21-34.598-5.281-6.864-6.9-7.411-16.199-5.829 0 6.023-.001 12.116 0 18.208.001 7.374-.055 14.749.037 22.122.028 2.295-.498 3.399-3.121 3.317-5.726-.182-11.461-.057-17.496-.057-.001-45.534-.001-90.811-.001-136.42zM358.471 146.973c-.253 7.102.289 13.521 2.405 19.723 2.099 6.148 6.705 9.034 13.013 9.532 12.205.963 23.771-1.935 35.18-5.794 1.645-.557 3.283-1.131 5.191-1.79 1.78 4.638 2.15 9.484 3.451 14.084.354 1.25-.473 1.786-1.454 2.217-17.13 7.54-34.795 11.486-53.511 7.549-13.755-2.894-21.379-11.998-23.493-25.405-3.46-21.938-2.224-43.789 2.737-65.438.421-1.837 1.462-2.738 3.16-3.224 16.765-4.801 33.823-6.657 51.08-3.854 10.814 1.757 18.247 8.339 21.821 18.821 3.687 10.812 3.307 22.028 3.311 33.579h-62.891zm42.447-14.494c.271-4.166-.261-8.07-1.227-11.923-1.409-5.616-5.225-8.877-10.8-9.393-8.713-.807-17.456-.395-26.129.856-1.111.161-2.477.175-2.827 1.9-1.236 6.09-1.681 12.231-1.895 18.56h42.878zM496.898 145.096c.21-9.245.837-18.071 4.065-26.475 5.289-13.764 15.239-21.834 29.771-24.253 9.079-1.512 18.121-1.32 27.097.76 12.237 2.835 21.027 9.95 24.911 21.944 5.692 17.58 5.932 35.393-.615 52.827-5.467 14.559-16.962 21.677-31.941 23.586-8.215 1.047-16.4.642-24.512-1.301-14.201-3.399-22.496-12.533-26.247-26.342-1.884-6.932-2.216-14.018-2.529-20.746zm69.477-2.506c-.047-6.996-.323-13.948-2.94-20.587-2.184-5.54-6.177-8.857-11.907-10.295-3.438-.862-6.918-.853-10.407-.838-11.779.047-19.343 5.793-22.052 17.289-2.669 11.328-2.564 22.787.153 34.09 1.778 7.391 6.425 12.186 14.249 13.517 3.848.654 7.689.736 11.549.502 9.332-.566 16.104-5.96 18.978-14.855 1.982-6.142 2.43-12.445 2.377-18.823zM699.778 96.055h19.729c.84 1.432.485 2.835.486 4.168.026 22.613.007 45.226.027 67.837.007 6.711 4.168 9.656 10.825 8.516 6.11-1.048 12.314-1.434 18.313-3.255 3.444-1.047 6.81-2.249 10.438-3.624v-73.542h20.623v3.902c-.002 25.235-.03 50.472.039 75.708.007 2.256-.618 3.33-2.729 4.516-15.893 8.93-32.952 13.41-51.091 13.773-6.94.139-13.696-.879-19.197-5.859-5.597-5.068-7.653-11.643-7.689-18.833-.119-23.735-.022-47.472.001-71.208.001-.598.125-1.196.225-2.099zM459.978 191.271h-20.459c-.721-2.193-.389-4.321-.392-6.399-.036-24.49.019-48.98-.085-73.47-.011-2.461.653-3.769 2.896-4.886 14.146-7.053 29.189-10.461 45.377-11.779 0 5.509.11 10.712-.052 15.907-.068 2.199-2.146 1.696-3.517 1.803-6.857.534-13.588 1.622-20.203 3.611-2.791.839-3.648 2.212-3.636 5.05.107 22.115.066 44.231.07 66.348l.001 3.815z"/><path fill-rule="evenodd" fill="#BEBBE0" d="M5.879 27.71c.036 7.362.1 14.722.102 22.084.01 56.915.009 113.831.007 170.747 0 .746-.067 1.492-.104 2.237-1-1.195-.608-2.629-.608-3.96-.025-62.505-.028-125.012-.022-187.519 0-1.221-.291-2.516.625-3.589z"/><path d="M13.515 124.861c-.001-30.611-.005-61.221.001-91.833.002-10.654 6.615-17.205 17.297-17.203 46.104.008 92.209.003 138.313.017 11.051.003 17.54 6.601 17.54 17.734-.004 60.849-.122 121.696.121 182.543.038 9.557-6.346 18.264-18.06 18.171-45.977-.362-91.958-.142-137.938-.154-11.206-.003-17.263-6.121-17.269-17.44-.014-30.612-.004-61.222-.005-91.835zm36.05.799c1.738.182 3.029-.701 4.395-1.216 10.618-3.998 21.278-7.871 32.265-10.742 9.301-2.431 18.633-4.781 28.385-4.159 6.983.446 9.293 2.874 9.293 9.727.001 28.982-.01 57.966.011 86.948 0 1.199-.401 2.505.582 3.65h24.832v-8.655c0-28.233.041-56.467-.016-84.699-.034-16.817-8.591-26.468-25.166-28.944-7.147-1.068-14.187-.476-21.248.525-9.15 1.296-17.994 3.83-27.18 6.967v-55.172c-8.944.137-17.493-.285-26.153.433v85.337zm109.453-85.547c-9.017 0-17.378.111-25.734-.066-2.589-.055-3.614.991-4.645 3.188-4.662 9.931-9.664 19.69-16.335 28.48-.351.463-.931.884-.499 1.798h17.467c10.059 0 10.141.056 15.796-8.241 5.317-7.798 10.363-15.771 13.95-25.159zm-108.981 168.615c8.65-8.61 17.248-17.171 25.083-24.97-8.208-8.408-16.659-17.065-25.083-25.695v50.665zM400.918 132.479h-42.878c.214-6.328.658-12.47 1.895-18.56.351-1.726 1.716-1.74 2.827-1.9 8.674-1.251 17.417-1.663 26.129-.856 5.576.516 9.391 3.777 10.8 9.393.966 3.852 1.498 7.757 1.227 11.923zM566.375 142.588c.053 6.38-.396 12.684-2.378 18.823-2.873 8.896-9.646 14.289-18.978 14.855-3.859.234-7.701.152-11.549-.502-7.824-1.331-12.471-6.126-14.249-13.517-2.718-11.303-2.822-22.762-.153-34.09 2.709-11.495 10.272-17.241 22.052-17.289 3.489-.014 6.969-.024 10.407.838 5.73 1.438 9.724 4.755 11.907 10.295 2.618 6.641 2.894 13.593 2.941 20.587z" fill="none"/><path fill-rule="evenodd" fill="#6964A5" d="M49.565 125.66v-85.338c8.66-.718 17.208-.296 26.153-.433v55.172c9.186-3.138 18.03-5.671 27.18-6.967 7.062-1 14.101-1.593 21.248-.525 16.575 2.476 25.132 12.127 25.166 28.944.057 28.232.016 56.466.016 84.699v8.655h-24.832c-.983-1.146-.582-2.451-.582-3.65-.021-28.982-.009-57.966-.011-86.948 0-6.853-2.31-9.28-9.293-9.727-9.752-.622-19.084 1.728-28.385 4.159-10.986 2.872-21.647 6.745-32.265 10.742-1.366.516-2.658 1.399-4.395 1.217zM159.018 40.113c-3.586 9.388-8.633 17.36-13.95 25.159-5.655 8.296-5.737 8.241-15.796 8.241h-17.467c-.432-.915.148-1.335.499-1.798 6.672-8.79 11.673-18.549 16.335-28.48 1.031-2.197 2.055-3.243 4.645-3.188 8.355.178 16.717.066 25.734.066zM50.037 208.728v-50.665c8.424 8.63 16.874 17.287 25.083 25.695-7.835 7.799-16.433 16.359-25.083 24.97z"/></g></svg>