<?xml version="1.0" encoding="UTF-8" standalone="no"?>
<!-- Created with Inkscape (http://www.inkscape.org/) -->

<svg
   xmlns:dc="http://purl.org/dc/elements/1.1/"
   xmlns:cc="http://creativecommons.org/ns#"
   xmlns:rdf="http://www.w3.org/1999/02/22-rdf-syntax-ns#"
   xmlns:svg="http://www.w3.org/2000/svg"
   xmlns="http://www.w3.org/2000/svg"
   xmlns:sodipodi="http://sodipodi.sourceforge.net/DTD/sodipodi-0.dtd"
   xmlns:inkscape="http://www.inkscape.org/namespaces/inkscape"
   width="8192"
   height="2048"
   id="svg2"
   version="1.1"
   inkscape:version="0.48.5 r10040"
   sodipodi:docname="htblogo-wide.svg"
   inkscape:export-filename="/home/anguspearson/Dropbox/CompSoc/htblogo-wide.png"
   inkscape:export-xdpi="29.73"
   inkscape:export-ydpi="29.73">
  <defs
     id="defs4">
    <inkscape:perspective
       sodipodi:type="inkscape:persp3d"
       inkscape:vp_x="-3403.3356 : 753.48955 : 1"
       inkscape:vp_y="0 : 1030.9809 : 0"
       inkscape:vp_z="10969.45 : 753.48955 : 1"
       inkscape:persp3d-origin="3783.057 : 401.58139 : 1"
       id="perspective2984" />
    <inkscape:perspective
       sodipodi:type="inkscape:persp3d"
       inkscape:vp_x="2038.8018 : 1621.358 : 1"
       inkscape:vp_y="0 : 1000 : 0"
       inkscape:vp_z="4900.626 : 1621.358 : 1"
       inkscape:persp3d-origin="3469.7139 : 1280.0247 : 1"
       id="perspective2984-6" />
    <inkscape:perspective
       sodipodi:type="inkscape:persp3d"
       inkscape:vp_x="5007.0146 : 889.36352 : 1"
       inkscape:vp_y="0 : 1000 : 0"
       inkscape:vp_z="6698.49 : -558.79117 : 1"
       inkscape:persp3d-origin="6520.2611 : 548.03022 : 1"
       id="perspective2984-8" />
    <inkscape:perspective
       sodipodi:type="inkscape:persp3d"
       inkscape:vp_x="6451.8881 : 1532.9156 : 1"
       inkscape:vp_y="0 : 1000 : 0"
       inkscape:vp_z="9313.7123 : 1532.9156 : 1"
       inkscape:persp3d-origin="7882.8002 : 1191.5823 : 1"
       id="perspective2984-7" />
    <inkscape:perspective
       sodipodi:type="inkscape:persp3d"
       inkscape:vp_x="5552.4483 : 1578.1704 : 1"
       inkscape:vp_y="0 : 1000 : 0"
       inkscape:vp_z="8414.2725 : 1578.1704 : 1"
       inkscape:persp3d-origin="6983.3604 : 1236.8371 : 1"
       id="perspective2984-5" />
    <inkscape:perspective
       sodipodi:type="inkscape:persp3d"
       inkscape:vp_x="4921.0977 : 770.21083 : 1"
       inkscape:vp_y="0 : 1000 : 0"
       inkscape:vp_z="7782.9218 : 770.21083 : 1"
       inkscape:persp3d-origin="6352.0097 : 428.87752 : 1"
       id="perspective2984-4" />
  </defs>
  <sodipodi:namedview
     id="base"
     pagecolor="#ffffff"
     bordercolor="#666666"
     borderopacity="1.0"
     inkscape:pageopacity="0.0"
     inkscape:pageshadow="2"
     inkscape:zoom="0.125"
     inkscape:cx="3269.45"
     inkscape:cy="1368.6544"
     inkscape:document-units="px"
     inkscape:current-layer="layer1"
     showgrid="false"
     inkscape:window-width="1920"
     inkscape:window-height="952"
     inkscape:window-x="0"
     inkscape:window-y="28"
     inkscape:window-maximized="1" />
  <metadata
     id="metadata7">
    <rdf:RDF>
      <cc:Work
         rdf:about="">
        <dc:format>image/svg+xml</dc:format>
        <dc:type
           rdf:resource="http://purl.org/dc/dcmitype/StillImage" />
        <dc:title></dc:title>
      </cc:Work>
    </rdf:RDF>
  </metadata>
  <g
     inkscape:label="Layer 1"
     inkscape:groupmode="layer"
     id="layer1"
     transform="translate(0,995.63782)">
    <g
       id="g3277"
       transform="translate(896,-24)">
      <g
         transform="translate(-1555.6349,464.26407)"
         id="g3253">
        <g
           inkscape:corner7="-0.27592266 : -0.16869787 : 0.39827349 : 1"
           inkscape:corner0="1.0687924 : 1.2188213 : 0 : 1"
           inkscape:perspectiveID="#perspective2984-4"
           id="g2986"
           style="fill:#ff9c8a;fill-opacity:1;stroke:none"
           sodipodi:type="inkscape:box3d">
          <path
             d="M 6272.3979,88.422979 7556.9193,546.27499 7871.1935,296.31843 6622.7399,48.623218 z"
             inkscape:box3dsidetype="13"
             style="fill:#ff9c8a;fill-opacity:1;fill-rule:evenodd;stroke:none"
             id="path2996"
             sodipodi:type="inkscape:box3dside" />
          <path
             d="m 6272.3979,-582.26741 0,670.690389 350.342,-39.799761 0,-562.416748 z"
             inkscape:box3dsidetype="6"
             style="fill:#ff9c8a;fill-opacity:1;fill-rule:evenodd;stroke:none"
             id="path2988"
             sodipodi:type="inkscape:box3dside" />
          <path
             d="m 6622.7399,-513.79353 1248.4536,-426.14958 0,1236.26154 L 6622.7399,48.623218 z"
             inkscape:box3dsidetype="11"
             style="fill:#ff9c8a;fill-opacity:1;fill-rule:evenodd;stroke:none"
             id="path2998"
             sodipodi:type="inkscape:box3dside" />
          <path
             d="m 6272.3979,-582.26741 1284.5214,-787.71589 314.2742,430.04019 -1248.4536,426.14958 z"
             inkscape:box3dsidetype="5"
             style="fill:#ff9c8a;fill-opacity:1;fill-rule:evenodd;stroke:none"
             id="path2990"
             sodipodi:type="inkscape:box3dside" />
          <path
             d="m 7556.9193,-1369.9833 0,1916.25829 314.2742,-249.95656 0,-1236.26154 z"
             inkscape:box3dsidetype="14"
             style="fill:#ff9c8a;fill-opacity:1;fill-rule:evenodd;stroke:none"
             id="path2994"
             sodipodi:type="inkscape:box3dside" />
          <path
             d="m 6272.3979,-582.26741 1284.5214,-787.71589 0,1916.25829 L 6272.3979,88.422979 z"
             inkscape:box3dsidetype="3"
             style="fill:#ff9c8a;fill-opacity:1;fill-rule:evenodd;stroke:none"
             id="path2992"
             sodipodi:type="inkscape:box3dside" />
        </g>
        <path
           inkscape:connector-curvature="0"
           id="path3000"
           d="m 7262.6703,441.67801 c -160.2304,-57.3377 -305.9651,-109.3753 -323.8549,-115.6391 -17.8898,-6.2638 -78.6316,-27.8902 -134.9818,-48.0586 -56.3502,-20.1685 -104.7163,-37.0518 -107.4802,-37.5184 -2.764,-0.4667 -5.6618,-1.5622 -6.4396,-2.4345 -0.7778,-0.8723 -11.5965,-5.1504 -24.0416,-9.5067 -114.8942,-40.2185 -387.9548,-138.256691 -389.644,-139.895691 -1.1821,-1.1471 -2.1348,-150.6079 -2.1171,-332.135009 -2.2764,-111.4899 -1.7926,-329.0048 -1.7084,-338.7623 2.3695,-1.4925 52.4502,-31.2922 111.2317,-67.4198 159.6449,-98.7322 629.2555,-386.99181 825.6907,-506.92321 188.0145,-115.3369 343.7539,-210.2252 346.0874,-210.8628 3.7661,-1.0292 4.1623,106.3766 3.5273,956.40831 -0.3935,526.6622 -1.6663,957.4395 -2.8285,957.283 -1.1622,-0.1566 -133.2107,-47.1974 -293.441,-104.5352 z"
           style="fill:#ed6550;fill-opacity:1;stroke:none"
           sodipodi:nodetypes="ssscssccccccscs"
           inkscape:export-xdpi="108.42"
           inkscape:export-ydpi="108.42" />
      </g>
      <g
         transform="matrix(0.80651122,0,0,0.80651122,-302.01694,146.49292)"
         id="g3121">
        <path
           style="fill:#000000"
           d="m 2222.2803,567.92874 c -155.2654,-28.76631 -258.0079,-172.58552 -293.0339,-410.18902 -9.7771,-66.326337 -9.7429,-246.12797 0.061,-315.17193 39.4473,-277.8328 174.9488,-429.14362 374.6149,-418.32213 80.6821,4.37276 137.369,28.35154 190.53,80.59486 27.2172,26.74699 45.9453,53.32639 66.7292,94.70315 18.0703,35.97509 40.4567,100.68766 36.2147,104.68736 -2.289,2.15846 -117.911,40.76387 -174.2855,58.19277 -7.1776,2.21899 -9.1115,-0.62055 -18.4156,-27.03883 -22.2111,-63.06796 -49.4067,-98.58011 -82.3915,-107.58762 -9.0656,-2.47558 -27.7435,-4.45691 -41.507,-4.40295 -75.14,0.29467 -119.994,60.08495 -144.4806,192.59263 -11.0712,59.91263 -14.316,243.090162 -5.6344,318.07316 20.3079,175.39211 77.7478,252.86013 176.0639,237.45433 23.1256,-3.62369 46.7939,-15.434 60.5133,-30.19605 14.0126,-15.07718 34.0811,-51.2874 48.7105,-87.88938 7.6791,-19.21332 14.4743,-35.46041 15.1001,-36.1046 1.0548,-1.08598 165.068,67.16234 168.8353,70.25481 3.8945,3.19699 -21.1499,70.51975 -39.9866,107.48865 -51.9043,101.86968 -125.3799,158.70448 -225.6179,174.51932 -32.5379,5.13362 -79.0774,4.44457 -112.0189,-1.65853 z M 516.73827,13.216156 l 0,-558.196046 100.62702,0 100.62719,0 0,220.24062 0,220.24061 127.20793,0 127.20794,0 0,-220.24061 0,-220.24062 98.72855,0 98.7286,0 0,558.196046 0,558.196034 -98.7286,0 -98.72855,0 0,-241.1255 0,-241.125492 -127.20794,0 -127.20793,0 0,241.125492 0,241.1255 -100.62719,0 -100.62702,0 z M 1199.3974,561.08067 c 1.4323,-5.74334 65.2946,-255.65004 141.9162,-555.3481008 l 139.312,-544.9056592 98.1708,0 98.1711,0 141.448,552.500159 c 77.7964,303.875141 141.5206,553.781741 141.6091,555.348101 0.087,1.56637 -45.8089,2.84794 -101.9939,2.84794 l -102.1544,0 -9.8364,-42.71908 c -5.4103,-23.4955 -17.1708,-75.18558 -26.1346,-114.86688 l -16.2978,-72.14778 -125.4643,-0.99967 -125.4642,-0.9997 -26.0271,115.86657 -26.0275,115.86654 -101.9156,0 -101.916,0 z M 1658.7809,147.1802 c -11.9678,-41.13308 -62.1671,-279.38866 -75.806,-359.78962 -5.9704,-35.1932 -4.3866,-39.6064 -23.3038,64.93631 -7.5964,41.98045 -24.823,125.636411 -38.2812,185.90222 -13.4582,60.265756 -24.4695,110.92912 -24.4695,112.58521 0,1.6561 36.8539,3.01108 81.8969,3.01108 76.2021,0 81.7624,-0.46209 79.9636,-6.6452 z m 983.1692,-130.317597 0,-558.196043 101.0753,0 101.0749,0 -1.4847,248.28116 -1.4849,248.281117 51.9568,-101.137597 c 28.5757,-55.62572 86.9027,-166.92504 129.6153,-247.33184 l 77.6588,-146.19421 105.382,-1.01014 c 93.1782,-0.89315 105.1247,-0.3391 103.1584,4.78445 -1.2226,3.18704 -54.3087,97.3061 -117.9683,209.15352 l -115.7453,203.35886 133.1491,342.45822 c 73.2323,188.35196 134.0203,345.47462 135.085,349.16145 1.8231,6.31384 -4.5343,6.64474 -109.4341,5.69588 l -111.3696,-1.00741 -89.3934,-238.07604 C 2984.059,204.14219 2942.7133,98.19886 2941.3463,99.654357 c -1.3673,1.455513 -24.0085,41.196693 -50.3136,88.313713 l -47.8282,85.66726 0,150.71167 0,150.71164 -100.6272,0 -100.6272,0 z"
           id="path3052"
           inkscape:connector-curvature="0"
           sodipodi:nodetypes="cscssscssssssssscsssccccccccccccccccccccccccccccscccscsccscccccccccssssscccccccsscscscscscscscccccc" />
        <path
           style="fill:#000000"
           d="m 5147.3538,574.94533 c -108.1704,-24.68108 -181.3113,-95.57549 -218.5285,-211.8164 -29.411,-91.85972 -30.5628,-109.99687 -33.2509,-523.48127 l -2.5053,-385.43255 100.3594,0 100.359,0 2.3259,385.43255 c 2.0123,333.48266 3.6068,390.82 11.8266,425.40395 18.9553,79.75238 58.4798,117.64035 122.7204,117.64035 76.8184,0 112.371,-44.7962 127.3638,-160.47757 3.0763,-23.74136 5.6498,-205.271455 5.7478,-405.49209 l 0.1771,-362.50719 100.298,0 100.2986,0 0,353.91018 c 0,194.6505072 -2.6152,381.43616 -5.8053,415.0791 -22.7184,239.57345 -119.8061,350.78506 -312.2728,357.70226 -41.9112,1.50617 -75.1404,-0.49231 -99.1088,-5.96132 z m 1712.4741,4.77917 C 6702.3421,549.078 6598.3196,419.12249 6561.8114,207.41179 c -36.9447,-214.2456187 -9.1958,-445.81746 70.3139,-586.78707 67.0972,-118.96321 175.403,-177.7827 313.6728,-170.35207 118.8692,6.38804 206.1758,54.66905 264.1422,146.07149 17.0368,26.86518 51.0815,108.9764 51.0815,123.20302 0,5.10377 -31.1389,17.03565 -90.2684,34.58903 -99.6092,29.57044 -98.8657,29.41672 -98.8657,20.43344 0,-11.74479 -29.3591,-65.18288 -44.829,-81.59598 -22.5179,-23.89064 -55.9338,-39.03087 -93.7044,-42.45581 -127.6318,-11.57325 -190.5323,129.74168 -180.4864,405.487781 8.2568,226.625929 62.1157,326.515219 176.1287,326.654259 35.9774,0.0462 79.5723,-13.93495 98.4769,-31.57698 32.3046,-30.14701 50.1456,-86.29373 50.1456,-157.80721 l 0,-39.83719 -80.3805,0 -80.3809,0 1.5748,-93.134226 1.5745,-93.134231 176.7827,-1.516692 176.782,-1.516428 -2.489,156.262807 c -2.1852,137.17259 -4.0016,161.86393 -14.8677,202.11315 -45.1192,167.12744 -151.046,252.88757 -318.7314,258.05027 -34.83,1.07235 -69.7753,0.69496 -77.6557,-0.83865 z M 4074.3972,16.39855 l 0,-562.18344 174.3022,0 c 203.0619,0 239.0818,4.63203 310.7634,39.96293 99.9804,49.27902 151.113,136.65757 151.113,258.23062 0,99.89837 -38.1968,170.016246 -113.6518,208.628697 l -19.0847,9.766125 33.4132,20.0255673 c 96.2899,57.7090827 132.2346,133.3852307 126.237,265.7735307 -7.632,168.47791 -81.4222,265.55804 -233.2418,306.86113 -31.1955,8.48699 -69.1721,10.54012 -233.5519,12.62659 l -196.2986,2.4918 z m 392.9189,357.55372 c 25.6862,-13.1366 37.7851,-23.85938 50.954,-45.15998 15.6602,-25.32988 17.4632,-33.33302 19.3488,-85.88224 2.5419,-70.85311 -10.1541,-112.3517 -43.2664,-141.42481 -35.1709,-30.880459 -53.8472,-35.904877 -143.4183,-38.581917 l -81.6714,-2.441022 0,167.483539 0,167.48353 82.1846,-2.12521 c 77.9897,-2.01644 83.9033,-3.00414 115.8687,-19.35189 z m -29.1078,-496.27944 c 35.1894,-9.76923 63.2912,-41.59516 71.456,-80.92503 13.0561,-62.89264 -6.5183,-116.85303 -51.4403,-141.80348 -23.2097,-12.89106 -33.2951,-14.4341 -107.2898,-16.4148 l -81.6714,-2.18626 0,123.86115 0,123.86098 73.0747,-0.0333 c 40.191,-0.0257 83.333,-2.87969 95.8708,-6.36048 z m 1326.9339,137.749568 0,-562.134998 193.4327,2.45261 c 161.2523,2.04452 199.1537,4.10479 227.8206,12.38387 119.4521,34.49784 194.2914,110.16499 224.3258,226.80746 11.9791,46.52381 13.4563,156.56638 2.6921,200.59695 -19.5881,80.123614 -75.4555,156.206385 -143.1951,195.01022 -19.121,10.95315 -34.8422,21.31625 -34.9354,23.02892 -0.093,1.71271 42.3843,106.01559 94.3961,231.78427 52.012,125.76844 94.5673,229.46562 94.5673,230.43792 0,0.97231 -48.6534,1.76784 -108.119,1.76784 l -108.1187,0 -81.9233,-199.16391 c -45.0581,-109.54022 -84.5079,-204.96718 -87.6665,-212.0596 -5.0087,-11.24535 -10.0266,-12.89545 -39.2115,-12.89545 l -33.4682,0 0,212.05935 0,212.05961 -100.2985,0 -100.2984,0 z m 362.6145,-59.029261 c 38.2599,-11.514723 58.8969,-28.595685 75.4324,-62.436167 19.9335,-40.79396 24.3336,-89.06198 12.3739,-135.74487 -12.2828,-47.9438 -31.6359,-72.54682 -71.5391,-90.9445 -27.9201,-12.87293 -41.7202,-15.12626 -105.2102,-17.17933 l -73.0746,-2.36305 0,158.28956 0,158.28941 67.8655,0 c 41.1927,0 78.1959,-3.10906 94.1521,-7.911053 z m 1322.3994,59.493088 0,-561.671115 100.2986,0 100.2982,0 0,220.65656 0,220.65662 128.9552,0 128.9552,0 0,-220.65662 0,-220.65656 100.2981,0 100.2986,0 0,561.671115 0,561.671235 -100.2986,0 -100.2981,0 0,-243.58194 0,-243.581701 -128.9552,0 -128.9552,0 0,243.581701 0,243.58194 -100.2982,0 -100.2986,0 z"
           id="path3052-3"
           inkscape:connector-curvature="0"
           sodipodi:nodetypes="csscccssscsccccssccsssscsssssscsscccccccssssccsssscssssccssssscccsscsssccccccccssssscssscscscccccccsssscccscccccccccccccccccccccccccc" />
        <path
           style="fill:#000000"
           d="m 3383.0205,410.22805 0,-163.50423 46.7154,0 46.7154,0 0,56.0585 0,56.05869 228.9062,0 228.9059,0 0,51.38704 0,51.38704 -228.9059,0 -228.9062,0 0,56.05869 0,56.05869 -46.7154,0 -46.7154,0 z m 0,-287.21425 0,-48.965383 108.6134,-1.253801 108.6136,-1.254011 0,-60.730248 0,-60.730165 -108.6136,-1.25399 -108.6134,-1.25399 0,-48.965192 0,-48.96522 275.6214,0 275.6215,0 0,49.0513 0,49.051312 -119.1245,0 -119.1247,0 0,63.065945 0,63.065965 119.1247,0 119.1245,0 0,49.051318 0,49.05133 -275.6215,0 -275.6214,0 z m 0,-523.46919 0,-142.65149 45.5475,1.33704 45.5476,1.33705 1.2673,92.40199 1.2671,92.402 59.4631,-1.30673 59.4628,-1.30672 1.3075,-59.56229 1.3077,-59.56228 44.1003,0 44.101,0 1.3075,59.56228 1.3071,59.56229 75.9127,1.2836 75.9128,1.28362 0,-95.88255 0,-95.88253 46.7154,0 46.7155,0 0,144.81811 0,144.81814 -275.6215,0 -275.6214,0 z"
           id="path3052-9"
           inkscape:connector-curvature="0"
           sodipodi:nodetypes="ccccccccccccccccccccccccccccccccccccccccccccccccccccccccccccccccccc" />
      </g>
    </g>
  </g>
</svg>
