<?xml version="1.0" encoding="UTF-8" standalone="no"?>
<!-- Created with Inkscape (http://www.inkscape.org/) -->

<svg
   xmlns:dc="http://purl.org/dc/elements/1.1/"
   xmlns:cc="http://creativecommons.org/ns#"
   xmlns:rdf="http://www.w3.org/1999/02/22-rdf-syntax-ns#"
   xmlns:svg="http://www.w3.org/2000/svg"
   xmlns="http://www.w3.org/2000/svg"
   xmlns:sodipodi="http://sodipodi.sourceforge.net/DTD/sodipodi-0.dtd"
   xmlns:inkscape="http://www.inkscape.org/namespaces/inkscape"
   width="2048"
   height="2048"
   id="svg2"
   version="1.1"
   inkscape:version="0.48.5 r10040"
   sodipodi:docname="htblogo.svg"
   inkscape:export-filename="/home/anguspearson/Dropbox/CompSoc/htblogo.png"
   inkscape:export-xdpi="108.42"
   inkscape:export-ydpi="108.42">
  <defs
     id="defs4">
    <inkscape:perspective
       sodipodi:type="inkscape:persp3d"
       inkscape:vp_x="-463.93536 : 755.26493 : 1"
       inkscape:vp_y="0 : 1000 : 0"
       inkscape:vp_z="2397.8888 : 755.26493 : 1"
       inkscape:persp3d-origin="966.97671 : 413.9316 : 1"
       id="perspective2984" />
  </defs>
  <sodipodi:namedview
     id="base"
     pagecolor="#ffffff"
     bordercolor="#666666"
     borderopacity="1.0"
     inkscape:pageopacity="0.0"
     inkscape:pageshadow="2"
     inkscape:zoom="0.5"
     inkscape:cx="7.907168"
     inkscape:cy="1808.9091"
     inkscape:document-units="px"
     inkscape:current-layer="g3770"
     showgrid="false"
     inkscape:window-width="1920"
     inkscape:window-height="952"
     inkscape:window-x="0"
     inkscape:window-y="28"
     inkscape:window-maximized="1" />
  <metadata
     id="metadata7">
    <rdf:RDF>
      <cc:Work
         rdf:about="">
        <dc:format>image/svg+xml</dc:format>
        <dc:type
           rdf:resource="http://purl.org/dc/dcmitype/StillImage" />
        <dc:title />
      </cc:Work>
    </rdf:RDF>
  </metadata>
  <g
     inkscape:label="Layer 1"
     inkscape:groupmode="layer"
     id="layer1"
     transform="translate(0,995.63782)">
    <g
       id="g3770"
       transform="translate(-24,116)">
      <g
         inkscape:corner7="-0.27592266 : -0.16869787 : 0.39827349 : 1"
         inkscape:corner0="1.0687924 : 1.2188213 : 0 : 1"
         inkscape:perspectiveID="#perspective2984"
         id="g2986"
         style="fill:#ff9c8a;fill-opacity:1;stroke:none"
         sodipodi:type="inkscape:box3d">
        <path
           d="M 251.73001,427.63296 1536.2514,885.48499 1850.5256,635.52842 602.07198,387.8332 z"
           inkscape:box3dsidetype="13"
           style="fill:#ff9c8a;fill-opacity:1;fill-rule:evenodd;stroke:none"
           id="path2996"
           sodipodi:type="inkscape:box3dside" />
        <path
           d="m 251.73001,-243.05743 0,670.69039 350.34197,-39.79976 0,-562.41675 z"
           inkscape:box3dsidetype="6"
           style="fill:#ff9c8a;fill-opacity:1;fill-rule:evenodd;stroke:none"
           id="path2988"
           sodipodi:type="inkscape:box3dside" />
        <path
           d="m 602.07198,-174.58355 1248.45362,-426.14957 0,1236.26154 L 602.07198,387.8332 z"
           inkscape:box3dsidetype="11"
           style="fill:#ff9c8a;fill-opacity:1;fill-rule:evenodd;stroke:none"
           id="path2998"
           sodipodi:type="inkscape:box3dside" />
        <path
           d="M 251.73001,-243.05743 1536.2514,-1030.7733 1850.5256,-600.73312 602.07198,-174.58355 z"
           inkscape:box3dsidetype="5"
           style="fill:#ff9c8a;fill-opacity:1;fill-rule:evenodd;stroke:none"
           id="path2990"
           sodipodi:type="inkscape:box3dside" />
        <path
           d="m 1536.2514,-1030.7733 0,1916.25829 314.2742,-249.95657 0,-1236.26154 z"
           inkscape:box3dsidetype="14"
           style="fill:#ff9c8a;fill-opacity:1;fill-rule:evenodd;stroke:none"
           id="path2994"
           sodipodi:type="inkscape:box3dside" />
        <path
           d="m 251.73001,-243.05743 1284.52139,-787.71587 0,1916.25829 L 251.73001,427.63296 z"
           inkscape:box3dsidetype="3"
           style="fill:#ff9c8a;fill-opacity:1;fill-rule:evenodd;stroke:none"
           id="path2992"
           sodipodi:type="inkscape:box3dside" />
      </g>
      <path
         transform="translate(0,-995.63782)"
         inkscape:connector-curvature="0"
         id="path3000"
         d="M 1240.5215,1776.3753 C 1080.2911,1719.0376 934.55644,1667 916.66664,1660.7362 c -17.8898,-6.2638 -78.63161,-27.8902 -134.98179,-48.0586 -56.35019,-20.1685 -104.7163,-37.0518 -107.48024,-37.5184 -2.76393,-0.4667 -5.66174,-1.5622 -6.43956,-2.4345 -0.77782,-0.8723 -11.59655,-5.1504 -24.04163,-9.5067 -114.89422,-40.2185 -387.95474,-138.2567 -389.64395,-139.8957 -1.18218,-1.1471 -2.13488,-150.6079 -2.11711,-332.135 -2.27646,-111.48989 -1.79262,-329.00476 -1.70843,-338.76221 2.36948,-1.49251 52.45024,-31.29228 111.23167,-67.41984 159.64491,-98.73217 629.25554,-386.99176 825.6907,-506.9232 188.0146,-115.336936 343.754,-210.2252 346.0875,-210.862815 3.7661,-1.029108 4.1623,106.376648 3.5273,956.408275 -0.3935,526.66219 -1.6663,957.43949 -2.8285,957.28299 -1.1622,-0.1566 -133.2107,-47.1974 -293.4411,-104.5352 z"
         style="fill:#ed6550;fill-opacity:1;stroke:none"
         sodipodi:nodetypes="ssscssccccccscs"
         inkscape:export-xdpi="108.42"
         inkscape:export-ydpi="108.42" />
    </g>
    <path
       style="fill:#000000"
       d="m 837.44634,653.9468 c -42.16445,-9.62056 -70.67458,-37.25494 -85.18165,-82.56528 -11.46428,-35.80655 -11.91333,-42.87638 -12.9611,-204.05118 l -0.9765,-150.24027 39.11966,0 39.11966,0 0.90658,150.24027 c 0.78437,129.99042 1.40589,152.34027 4.60997,165.82095 7.38869,31.08722 22.79519,45.85585 47.83605,45.85585 29.9435,0 43.8018,-17.46143 49.64587,-62.55357 1.19924,-9.25437 2.20233,-80.01414 2.24053,-158.05946 l 0.0693,-141.30404 39.09593,0 39.09596,0 0,137.95296 c -9e-4,75.87412 -1.01936,148.68252 -2.26286,161.79643 -8.8555,93.3849 -46.7,136.73481 -121.72295,139.43105 -16.33675,0.58711 -29.28936,-0.1919 -38.63219,-2.32371 z m 667.51646,1.86291 c -61.3874,-11.94592 -101.935,-62.60211 -116.1658,-145.12617 -14.4009,-83.51218 -3.5845,-173.77812 27.4081,-228.72758 26.1543,-46.37145 68.3715,-69.29908 122.2686,-66.40265 46.3347,2.49004 80.3665,21.30981 102.9616,56.93816 6.6409,10.47196 19.9114,42.47863 19.9114,48.02411 0,1.98943 -12.1378,6.64044 -35.1863,13.48269 -38.8273,11.52645 -38.5375,11.46653 -38.5375,7.96488 0,-4.57808 -11.444,-25.40806 -17.4741,-31.80583 -8.7774,-9.31249 -21.8028,-15.2141 -36.5257,-16.54913 -49.7504,-4.51121 -74.2688,50.57286 -70.3529,158.05776 3.2184,88.33794 24.2125,127.27448 68.6543,127.32872 14.0239,0.0179 31.017,-5.43186 38.386,-12.30866 12.5921,-11.75118 19.5464,-33.63702 19.5464,-61.51268 l 0,-15.52843 -31.3319,0 -31.3322,0 0.6139,-36.30341 0.6137,-36.30341 68.9092,-0.59111 68.909,-0.59111 -0.9702,60.91062 c -0.8518,53.46945 -1.5598,63.09401 -5.7954,78.78307 -17.5873,65.14563 -58.8772,98.5747 -124.2403,100.58705 -13.5766,0.41799 -27.1981,0.2709 -30.2699,-0.32689 z M 419.21163,436.22722 l 0,-219.13715 67.94233,0 c 79.15283,0 93.1932,1.80555 121.13454,15.57741 38.97199,19.20879 58.90334,53.26865 58.90334,100.6574 0,38.94004 -14.88909,66.2717 -44.30111,81.32274 l -7.43918,3.80685 13.02432,7.80584 c 37.53349,22.49484 51.54459,51.99314 49.20687,103.5976 -2.97509,65.67215 -31.73811,103.51362 -90.91691,119.61339 -12.15997,3.30821 -26.96305,4.10851 -91.03778,4.92182 l -76.51642,0.97126 0,-219.13716 z m 153.15839,139.37321 c 10.01237,-5.12057 14.72846,-9.30031 19.86165,-17.60316 6.10433,-9.87356 6.80717,-12.99313 7.54217,-33.47663 0.9908,-27.61828 -3.95808,-43.79434 -16.86511,-55.12694 -13.70951,-12.0371 -20.9894,-13.99554 -55.9039,-15.03906 l -31.8353,-0.95151 0,65.2845 0,65.2845 32.03525,-0.82837 c 30.40014,-0.78607 32.70524,-1.17105 45.16524,-7.54333 z m -11.3461,-193.44798 c 13.71665,-3.80804 24.67068,-16.21368 27.85331,-31.54433 5.08918,-24.51533 -2.54079,-45.5489 -20.05132,-55.2745 -9.04703,-5.02489 -12.9783,-5.62636 -41.82108,-6.39843 l -31.8353,-0.8522 0,48.28065 0,48.28063 28.48422,-0.0134 c 15.66631,-0.007 32.48295,-1.12257 37.37017,-2.47936 z m 517.23418,53.69431 0,-219.11831 75.3994,0.95602 c 62.8556,0.79695 77.6294,1.60003 88.8037,4.82719 46.562,13.44714 75.7341,42.94193 87.4414,88.40876 4.6694,18.13482 5.2452,61.02903 1.0494,78.19196 -7.6354,31.23195 -29.4123,60.88877 -55.817,76.01436 -7.4533,4.2695 -13.5813,8.30897 -13.6177,8.97657 -0.036,0.6676 16.5213,41.32449 36.7953,90.34869 20.2741,49.02416 36.862,89.44494 36.862,89.82395 0,0.379 -18.9649,0.68909 -42.1444,0.68909 l -42.1443,0 -31.9334,-77.63344 c -17.5635,-42.6984 -32.9409,-79.89543 -34.1721,-82.66007 -1.9524,-4.38336 -3.9083,-5.02663 -15.2845,-5.02663 l -13.0458,0 0,82.66007 0,82.66007 -39.096,0 -39.096,0 0,-219.11828 z M 1219.604,412.8373 c 14.9136,-4.48838 22.9578,-11.14647 29.4033,-24.33734 7.77,-15.90138 9.4851,-34.71609 4.8233,-52.91292 -4.7878,-18.68833 -12.3316,-28.2785 -27.8857,-35.44985 -10.8832,-5.01782 -16.2624,-5.89616 -41.0106,-6.69644 l -28.4842,-0.92111 0,61.70072 0,61.70069 26.4537,0 c 16.0568,0 30.4805,-1.21197 36.7002,-3.08375 z m 515.4666,23.19026 0,-218.93749 39.096,0 39.0959,0 0,86.01116 0,86.01115 50.2663,0 50.2663,0 0,-86.01115 0,-86.01116 39.0959,0 39.096,0 0,218.93749 0,218.93748 -39.096,0 -39.0959,0 0,-94.94738 0,-94.94738 -50.2663,0 -50.2663,0 0,94.94738 0,94.94738 -39.0959,0 -39.096,0 0,-218.93748 z M 90.8055,563.36875 l 0,-78.19196 22.34056,0 22.34047,0 0,26.80867 0,26.80867 109.46874,0 109.46874,0 0,24.57462 0,24.57461 -109.46874,0 -109.46874,0 0,26.80867 0,26.80867 -22.34047,0 -22.34056,0 0,-78.19195 z m 0,-137.35327 0,-23.41641 51.94171,-0.59969 51.9418,-0.59969 0,-29.04273 0,-29.04272 -51.9418,-0.59969 -51.94171,-0.59969 0,-23.41641 0,-23.41642 131.80921,0 131.8093,0 0,23.45759 0,23.45759 -56.96843,0 -56.96842,0 0,30.15975 0,30.15976 56.96842,0 56.96843,0 0,23.45759 0,23.45758 -131.8093,0 -131.80921,0 0,-23.41641 z m 0,-250.33634 0,-68.2196 21.78204,0.63941 21.78196,0.63941 0.6061,44.189 0.60587,44.189 28.43685,-0.62491 28.43663,-0.62491 0.62531,-28.48421 0.62532,-28.48421 21.08993,0 21.09016,0 0.62531,28.48421 0.62509,28.48421 36.30341,0.61385 36.30341,0.61386 0,-45.85349 0,-45.85348 22.34056,0 22.34056,0 0,69.25573 0,69.25574 -131.8093,0 -131.80921,0 0,-68.21961 z m 335.29507,-31.7544 c -2.72667,-16.89505 -5.45981,-32.47759 -6.07373,-34.62787 -1.01918,-3.56995 1.23878,-3.90959 25.99346,-3.90959 24.75468,0 27.01287,0.33964 25.99369,3.90959 -0.61392,2.15028 -3.34729,17.73282 -6.07395,34.62787 l -4.95737,30.71827 -14.96237,0 -14.96214,0 -4.95759,-30.71827 z m 84.70735,-3.9096 0,-34.62786 741.70658,0 741.7066,0 0,34.62786 0,34.62787 -741.7066,0 -741.70658,0 0,-34.62787 z M 1253.6315,55.171507 c -91.3481,-16.924225 -151.7951,-101.538088 -172.4021,-241.328527 -5.7522,-39.0221 -5.7321,-144.80568 0.036,-185.42665 23.2082,-163.45874 102.9285,-252.48018 220.399,-246.11352 47.4681,2.57265 80.819,16.6802 112.0955,47.41677 16.0128,15.73619 27.0312,31.37378 39.2591,55.71717 10.6314,21.1654 23.8021,59.23807 21.3064,61.59123 -1.3467,1.2699 -69.3712,23.98281 -102.5383,34.23684 -4.2228,1.30551 -5.3606,-0.36509 -10.8345,-15.90789 -13.0676,-37.10508 -29.0677,-57.99812 -48.4738,-63.29755 -5.3336,-1.45647 -16.3225,-2.62216 -24.42,-2.59041 -44.2075,0.17336 -70.5967,35.35007 -85.003,113.30897 -6.5136,35.24869 -8.4226,143.01843 -3.3149,187.13355 11.9478,103.189299 45.7417,148.766439 103.5845,139.702669 13.6056,-2.13194 27.5305,-9.08036 35.6021,-17.76539 8.2441,-8.87043 20.0511,-30.174169 28.6581,-51.708389 4.5179,-11.30387 8.5157,-20.8626 8.8839,-21.2416 0.6206,-0.63892 97.1153,39.51395 99.3317,41.33336 2.2913,1.8809 -12.4432,41.489229 -23.5255,63.239329 -30.5371,59.93349 -73.7654,93.371388 -132.7389,102.675807 -19.1432,3.020287 -46.524,2.614895 -65.9046,-0.975769 z M 88.57144,-281.1044 l 0,-328.40623 59.20239,0 59.20249,0 0,129.57525 0,129.57524 74.84087,0 74.84087,0 0,-129.57524 0,-129.57525 58.08546,0 58.08545,0 0,328.40623 0,328.406222 -58.08545,0 -58.08546,0 0,-141.862553 0,-141.862549 -74.84087,0 -74.84087,0 0,141.862549 0,141.862553 -59.20249,0 -59.20239,0 0,-328.406222 z M 563.63843,41.158168 c 0.84269,-3.37901 38.41526,-150.407818 83.49427,-326.730678 l 81.96215,-320.58703 57.75727,0 57.7575,0 83.2188,325.05514 c 45.77048,178.78033 83.26148,325.809132 83.31358,326.73068 0.051,0.921548 -26.951,1.675542 -60.00656,1.675542 l -60.10102,0 -5.7871,-25.13313 C 882.06424,8.3454694 875.14514,-22.065611 869.87143,-45.411501 l -9.58857,-42.44706 -73.815,-0.58814 -73.81499,-0.58816 -15.31267,68.16835 -15.31289,68.168333 -59.9605,0 -59.96072,0 1.53234,-6.143654 z m 270.2714,-243.512098 c -7.04107,-24.20003 -36.57507,-164.37411 -44.59935,-211.6768 -3.51261,-20.70539 -2.58078,-23.30183 -13.7104,38.2043 -4.46923,24.69856 -14.60425,73.91629 -22.52219,109.37277 -7.91794,35.45645 -14.39626,65.26347 -14.39626,66.23781 0,0.97434 21.68241,1.77152 48.18278,1.77152 44.83236,0 48.10369,-0.27186 47.04542,-3.9096 z m 733.60657,-78.75047 0,-328.40623 59.4661,0 59.4659,0 -0.8735,146.07248 -0.8736,146.07245 30.568,-59.50278 c 16.8121,-32.72655 51.1279,-98.20783 76.2572,-145.51396 l 45.6894,-86.01116 61.9999,-0.5943 c 54.82,-0.52547 61.8485,-0.1995 60.6917,2.81486 -0.7193,1.87505 -31.9517,57.24858 -69.4049,123.05232 l -68.097,119.64312 78.3363,201.48013 c 43.0851,110.814039 78.8488,203.254785 79.4752,205.423875 1.0726,3.714654 -2.6677,3.90933 -64.3839,3.351084 l -65.5226,-0.592695 -52.5933,-140.068445 c -28.9263,-77.037629 -53.2514,-139.367789 -54.0557,-138.511469 -0.8044,0.85633 -14.125,24.23745 -29.6012,51.95804 l -28.139,50.40104 0,88.668939 0,88.668923 -59.2025,0 -59.2025,0 0,-328.406222 z"
       id="path3052"
       inkscape:connector-curvature="0" />
  </g>
</svg>
