<svg width="1000" height="250" xmlns="http://www.w3.org/2000/svg">
 <metadata id="metadata8">image/svg+xml</metadata>
 <g>
  <title>Layer 1</title>
  <g id="g10">
   <g id="g12">
    <path fill="#100f0d" fill-rule="nonzero" d="m63.98999,95.211243l14.01001,0c10.813751,0 16.222504,-3.563721 16.222504,-10.44751c0,-6.757515 -5.777534,-10.445015 -17.082527,-10.445015l-13.149986,0l0,20.892525zm0,-50.38623l0,19.41748l12.288757,0c9.217514,0 14.009979,-3.441223 14.009979,-9.710022c0,-6.38995 -4.914978,-9.707458 -14.133728,-9.707458l-12.165009,0zm-19.540009,60.832489l0,-10.446259l8.233757,0l0,-50.38623l-8.233757,0l0,-10.446293l32.934998,0c15.117523,0 24.333771,7.005001 24.333771,19.171261c0,7.987492 -4.670013,12.903755 -10.568764,15.23999c8.478767,2.33374 14.501244,8.355042 14.501244,16.590027c0,13.026253 -10.077507,20.277504 -26.545013,20.277504l-34.656246,0" id="path14"/>
    <path fill="#100f0d" fill-rule="nonzero" d="m165.380005,68.543762c-1.22876,-4.179993 -4.301239,-6.63623 -8.356262,-6.63623c-9.46376,0 -18.434982,7.004997 -18.434982,19.784966l0,13.518753l18.188736,0l0,10.446259l-40.554977,0l0,-10.446259l11.551239,0l0,-31.459961l-9.09375,0l0,-10.44751l19.784988,0l0,8.848751c3.318756,-6.14502 10.078796,-10.56879 19.048782,-10.56879c10.078751,0 16.346252,5.776249 18.188751,14.01001l-10.32251,2.950012" id="path16"/>
    <path fill="#100f0d" fill-rule="nonzero" d="m220.684006,84.519997c-3.440002,-1.229996 -8.603012,-2.212494 -13.395004,-2.212494c-6.880997,0 -13.518997,2.212494 -13.518997,8.479996c0,4.6688 4.179001,6.881302 9.953995,6.881302c7.988007,0 16.960007,-4.3013 16.960007,-11.675003l0,-1.473801l0,0l0,0zm0,-9.339996l0,-2.949997c0,-7.373703 -5.89801,-10.446304 -12.290009,-10.446304c-6.022003,0 -11.182999,2.458801 -15.360001,6.267601l-7.128998,-7.741299c4.916,-4.547501 11.921005,-8.726303 22.488998,-8.726303c13.151001,0 23.350998,7.005001 23.350998,20.277599l0,23.350006l7.62001,0l0,10.446198l-18.681,0l0,-5.529999c-2.825012,4.547501 -10.445007,7.25 -17.943008,7.25c-10.813004,0 -20.154999,-5.529999 -20.154999,-16.467499c0,-12.903702 12.658997,-17.818703 24.212006,-17.818703c5.653,0 10.322998,1.105003 13.886002,2.088699" id="path18"/>
    <path fill="#100f0d" fill-rule="nonzero" d="m284.837524,42.857479l-12.16626,0l0,-15.976259l12.16626,0l0,15.976259zm20.15625,52.353764l0,10.444977l-52.846237,0l0,-10.444977l21.874985,0l0,-31.460022l-16.713745,0l0,-10.44751l27.528748,0l0,41.907532l20.15625,0" id="path20"/>
    <path fill="#100f0d" fill-rule="nonzero" d="m318.022522,95.211243l7.987488,0l0,-31.461243l-7.496216,0l0,-10.446232l18.1875,0l0,6.759953c3.195007,-5.161251 9.832458,-8.478703 17.942505,-8.478703c11.674988,0 20.032471,7.372501 20.032471,19.293705l0,24.33252l7.986267,0l0,10.446259l-27.158752,0l0,-10.446259l8.356262,0l0,-21.383728c0,-9.09375 -5.528748,-11.675056 -10.568787,-11.675056c-8.233765,0 -16.466248,6.143806 -16.466248,15.607544l0,17.451225l8.356262,0l0,10.446274l-27.158752,0l0,-10.446274" id="path22"/>
    <path fill="#100f0d" fill-rule="nonzero" d="m397.536255,63.75l-13.640015,0l0,-10.446232l13.640015,0l0,-18.925049l10.813721,0l0,18.925049l25.441284,0l0,10.446232l-25.441284,0l0,21.998779c0,8.111214 5.65625,11.428711 12.168762,11.428711c6.143738,0 11.306274,-3.441223 15.11499,-7.25l7.251282,7.495003c-4.793762,5.162537 -12.16748,9.955017 -22.366272,9.955017c-13.151245,0 -22.982483,-7.251221 -22.982483,-21.26123l0,-22.366268" id="path24"/>
    <path fill="#100f0d" fill-rule="nonzero" d="m501.876221,68.543762c-1.22998,-4.179993 -4.30127,-6.63623 -8.357483,-6.63623c-9.462524,0 -18.433777,7.004997 -18.433777,19.784966l0,13.518753l18.190002,0l0,10.446259l-40.556213,0l0,-10.446259l11.55249,0l0,-31.459961l-9.095032,0l0,-10.44751l19.785034,0l0,8.848751c3.319946,-6.14502 10.077454,-10.56879 19.049988,-10.56879c10.076233,0 16.344971,5.776249 18.186218,14.01001l-10.321228,2.950012" id="path26"/>
    <path fill="#100f0d" fill-rule="nonzero" d="m531.003723,74.07373l32.19873,0c-1.597473,-7.496277 -8.234985,-12.536251 -15.607483,-12.536251c-8.357483,0 -14.746277,5.161251 -16.591248,12.536251m43.627502,23.594971c-5.40625,5.653809 -14.992493,9.710022 -25.684998,9.710022c-17.57373,0 -29.862488,-11.798775 -29.862488,-27.898743c0,-16.098751 11.919983,-27.897522 28.51123,-27.897522c16.467529,0 28.02002,12.660034 28.02002,29.865051l0,1.842468l-45.101257,0c1.841248,8.726265 9.092468,14.01001 18.554993,14.01001c7.86499,0 14.626221,-3.195007 18.313721,-7.25l7.248779,7.618713" id="path28"/>
    <path fill="#100f0d" fill-rule="nonzero" d="m598.22998,74.07373l32.19751,0c-1.596252,-7.496277 -8.233765,-12.536251 -15.607483,-12.536251c-8.356262,0 -14.747559,5.161251 -16.590027,12.536251m43.628723,23.594971c-5.408752,5.653809 -14.994995,9.710022 -25.6875,9.710022c-17.572449,0 -29.863708,-11.798775 -29.863708,-27.898743c0,-16.098751 11.922485,-27.897522 28.512512,-27.897522c16.46875,0 28.018738,12.660034 28.018738,29.865051l0,1.842468l-45.102539,0c1.845032,8.726265 9.096252,14.01001 18.559998,14.01001c7.866272,0 14.623779,-3.195007 18.309998,-7.25l7.252502,7.618713" id="path30"/>
    <path fill="#100f0d" fill-rule="nonzero" d="m660.048767,122.247498l49.647522,0l0,-10.445297l-49.647522,0l0,10.445297z" id="path32"/>
    <path fill="#7a7e82" fill-rule="nonzero" d="m743.127502,44.825012l0,50.38623l7.251221,0c16.221252,0 25.193787,-9.70874 25.193787,-25.193733c0,-15.116268 -8.972534,-25.192497 -25.193787,-25.192497l-7.251221,0zm44.241272,25.192497c0,21.016243 -12.78125,35.638733 -36.990051,35.638733l-26.17749,0l0,-10.445015l7.619995,0l0,-50.386227l-7.619995,0l0,-10.446232l26.17749,0c24.208801,0 36.990051,14.625 36.990051,35.638733" id="path34"/>
    <path fill="#7a7e82" fill-rule="nonzero" d="m811.336304,74.07373l32.19873,0c-1.597534,-7.496277 -8.234985,-12.536251 -15.607422,-12.536251c-8.357544,0 -14.747559,5.161251 -16.591309,12.536251m43.626221,23.594971c-5.405029,5.653809 -14.992432,9.710022 -25.684937,9.710022c-17.57251,0 -29.861328,-11.798775 -29.861328,-27.898743c0,-16.098751 11.920044,-27.897522 28.511353,-27.897522c16.467407,0 28.018677,12.660034 28.018677,29.865051l0,1.842468l-45.102539,0c1.845093,8.726265 9.095093,14.01001 18.556274,14.01001c7.866333,0 14.626221,-3.195007 18.313721,-7.25l7.248779,7.618713" id="path36"/>
    <path fill="#7a7e82" fill-rule="nonzero" d="m892.44873,105.657501l-20.03125,-41.907501l-6.513794,0l0,-10.446232l25.685059,0l0,10.446232l-7.005005,0l14.132446,30.35498l14.01001,-30.35498l-6.883667,0l0,-10.446232l25.686157,0l0,10.446232l-6.758667,0l-20.03125,41.907501l-12.290039,0" id="path38"/>
    <path fill="#7a7e82" fill-rule="nonzero" d="m949.977539,84.765007c6.757446,0 11.55127,4.79248 11.55127,11.307503c0,6.512512 -4.793823,11.182503 -11.55127,11.182503c-6.76001,0 -11.55249,-4.669983 -11.55249,-11.182503c0,-6.515007 4.79248,-11.307503 11.55249,-11.307503" id="path40"/>
    <path fill="#100f0d" fill-rule="nonzero" d="m70.570007,180.626221l-9.677486,16.511292l13.942501,0l-4.265015,-16.511292zm-12.192497,20.773743l-6.832489,11.708801l-5.030003,0l25.86124,-43.198792l11.698761,43.198792l-5.086243,0l-3.004997,-11.708801l-17.606258,0" id="path42"/>
    <path fill="#100f0d" fill-rule="nonzero" d="m454.408752,180.97876c-2.71875,-3.36377 -6.89624,-5.428772 -11.630005,-5.428772c-9.137512,0 -17.779968,7.938782 -19.190002,16.95874c-1.463745,9.02002 4.72998,16.95752 13.912537,16.95752c4.623718,0 9.514954,-2.173767 13.262451,-5.42749l-0.868713,5.64624c-3.960022,2.549988 -8.535034,4.018738 -12.879974,4.018738c-11.580048,0 -19.89624,-9.407471 -18.050018,-21.03624c1.844971,-11.742493 12.988708,-21.36499 24.727478,-21.36499c4.575012,0 8.433838,1.311279 11.638733,4.025009l-0.922485,5.65126" id="path44"/>
    <path fill="#100f0d" fill-rule="nonzero" d="m458.973755,200.21875c-0.813721,5.219971 2.232483,9.461243 7.611267,9.461243c5.377502,0 9.733704,-4.241272 10.548706,-9.461243c0.8125,-5.165039 -2.174988,-9.446289 -7.556213,-9.446289c-5.380005,0 -9.790039,4.28125 -10.60376,9.446289m-4.344971,0.049988c1.183716,-7.502502 8.100006,-13.525024 15.592468,-13.525024c7.506226,0 12.44751,6.028763 11.256256,13.525024c-1.190002,7.51123 -8.100006,13.429993 -15.547485,13.429993c-7.44751,0 -12.502472,-5.918762 -11.301239,-13.429993" id="path46"/>
    <path fill="#100f0d" fill-rule="nonzero" d="m491.222473,190.217468l0.099976,0c1.741272,-2.119995 4.137512,-3.473755 6.737549,-3.473755c3.001221,0 5.4375,1.573792 6.369995,4.242493c1.956238,-2.83374 5.268738,-4.242493 8.359985,-4.242493c6.53125,0 7.29248,5.323792 6.414978,10.696289l-2.436218,15.554993l-4.351257,0l2.342468,-14.840027c0.535034,-3.313721 0.972534,-7.387512 -3.482483,-7.387512c-4.991211,0 -6.311218,4.827515 -6.959961,8.692505l-2.11499,13.535034l-4.351318,0l2.292542,-14.507523c0.486267,-3.155029 0.862488,-7.720016 -3.315002,-7.720016c-5.11377,0 -6.46875,5.158737 -7.123779,9.014999l-2.063721,13.212509l-4.347473,0l4.024963,-25.55249l4.340088,0l-0.436279,2.774963" id="path48"/>
    <path fill="#100f0d" fill-rule="nonzero" d="m527.748779,199.956238c-0.815002,4.994995 1.408752,9.723755 6.840027,9.723755c5.608704,0 9.244995,-4.508789 10.063721,-9.668762c0.807495,-5.116272 -1.742493,-9.23999 -7.125,-9.23999c-5.049988,-0.003784 -9.025024,4.39624 -9.778748,9.184998m1.627502,-8.871277l0.10498,0c2.548767,-2.82373 5.977539,-4.336243 9.515015,-4.336243c7.496277,0 11.192505,6.460022 10.056274,13.530029c-1.150024,7.288696 -6.742493,13.426208 -14.407532,13.426208c-3.477478,0 -6.469971,-1.518738 -8.106262,-4.287476l-0.10498,0l-2.83374,17.929993l-4.340027,0l6.306274,-39.898743l4.339966,0l-0.529968,3.63623" id="path50"/>
    <path fill="#100f0d" fill-rule="nonzero" d="m556.40625,199.956238c-0.82373,4.994995 1.403748,9.723755 6.846252,9.723755c5.596252,0 9.233765,-4.508789 10.057495,-9.668762c0.807495,-5.116272 -1.747498,-9.23999 -7.130005,-9.23999c-5.05127,-0.003784 -9.02002,4.39624 -9.773743,9.184998m18.966248,13.038757l-4.351257,0l0.54126,-3.533752l-0.102478,0c-2.670044,2.834961 -5.88501,4.238724 -9.462524,4.238724c-7.507507,0 -11.257507,-6.351273 -10.117493,-13.431213c1.151245,-7.283737 6.798767,-13.525009 14.464966,-13.525009c3.477539,0 6.365051,1.627502 8.04126,4.336243l0.112488,0l0.532532,-3.641251l4.359985,0l-4.018738,25.556259" id="path52"/>
    <path fill="#100f0d" fill-rule="nonzero" d="m587.821228,190.543762l0.10376,0c2.22876,-2.446289 4.783752,-3.799988 7.933716,-3.799988c7.075012,0 7.888794,5.109985 6.907532,11.088745l-2.39624,15.161255l-4.341248,0l2.27124,-14.401321c0.654968,-4.133728 0.932495,-7.824936 -4.127502,-7.824936c-5.973755,0 -7.225037,5.537476 -7.982483,10.096237l-1.905029,12.12999l-4.342468,0l4.019958,-25.550049l4.340027,0l-0.481262,3.100052" id="path54"/>
    <path fill="#100f0d" fill-rule="nonzero" d="m606.253723,187.443726l5.046265,0l6.151245,18.3125l11.132507,-18.3125l4.952454,0l-25.158691,39.903748l-4.95752,0l10.924988,-16.748718l-8.091248,-23.155029" id="path56"/>
    <path fill="#459adb" fill-rule="nonzero" d="m304.391235,151.327515l-22.445007,0c-1.537476,0 -2.844971,1.11499 -3.08252,2.63501l-9.077454,57.557495c-0.179993,1.134949 0.702454,2.158752 1.846252,2.158752l11.518738,0c1.07373,0 1.98877,-0.78125 2.15625,-1.838745l2.575012,-16.320023c0.236206,-1.518799 1.544983,-2.632507 3.078735,-2.632507l7.10498,0c14.783752,0 23.316284,-7.155045 25.546265,-21.337524c1.005005,-6.202499 0.04248,-11.074997 -2.861267,-14.484985c-3.192505,-3.75 -8.848755,-5.737503 -16.359985,-5.737503m2.590027,21.02124c-1.226257,8.060013 -7.378784,8.060013 -13.333801,8.060013l-3.384949,0l2.375,-15.044983c0.142456,-0.907532 0.928711,-1.577499 1.847473,-1.577499l1.553772,0c4.053711,0 7.876221,0 9.849976,2.306259c1.181274,1.381241 1.538757,3.429993 1.092529,6.256241" id="path58"/>
    <path fill="#293b82" fill-rule="nonzero" d="m144.29126,151.327515l-22.445007,0c-1.537514,0 -2.842499,1.11499 -3.082489,2.63501l-9.07251,57.557495c-0.185013,1.134949 0.693756,2.158752 1.842499,2.158752l10.71875,0c1.533737,0 2.838745,-1.117554 3.080017,-2.628784l2.453743,-15.529968c0.237526,-1.518799 1.543755,-2.632507 3.078758,-2.632507l7.101242,0c14.783737,0 23.320007,-7.155029 25.546265,-21.337524c1.008759,-6.202515 0.042496,-11.075012 -2.858765,-14.484985c-3.194977,-3.75 -8.851242,-5.737488 -16.362503,-5.737488m2.592514,21.02124c-1.227524,8.059998 -7.381271,8.059998 -13.334991,8.059998l-3.387512,0l2.376251,-15.044983c0.142517,-0.907532 0.928741,-1.577515 1.846252,-1.577515l1.554993,0c4.053757,0 7.876236,0 9.853729,2.306274c1.181259,1.381226 1.537521,3.429993 1.091263,6.256226" id="path60"/>
    <path fill="#293b82" fill-rule="nonzero" d="m211.383759,172.091248l-10.748749,0c-0.921265,0 -1.706238,0.669983 -1.848755,1.581238l-0.47374,3.001221l-0.748749,-1.08374c-2.328751,-3.378723 -7.516251,-4.51001 -12.69873,-4.51001c-11.877502,0 -22.016281,8.997498 -23.992523,21.621277c-1.023727,6.294983 0.433762,12.315002 4.002502,16.512512c3.278748,3.860001 7.961258,5.462463 13.533737,5.462463c9.575012,0 14.882523,-6.144958 14.882523,-6.144958l-0.47876,2.987488c-0.181229,1.132507 0.695007,2.159973 1.850021,2.159973l9.676239,0c1.538757,0 2.84375,-1.112488 3.08252,-2.628723l5.813751,-36.794983c0.174988,-1.13501 -0.703781,-2.163757 -1.851273,-2.163757m-14.976257,20.922485c-1.04248,6.140015 -5.914993,10.265015 -12.133743,10.265015c-3.118759,0 -5.615021,-1.005005 -7.21875,-2.901245c-1.590027,-1.883789 -2.188736,-4.566284 -1.6875,-7.55127c0.96875,-6.090027 5.923752,-10.341248 12.047501,-10.341248c3.051239,0 5.529999,1.01001 7.167511,2.928772c1.643738,1.928696 2.29248,4.627487 1.824982,7.599976" id="path62"/>
    <path fill="#459adb" fill-rule="nonzero" d="m371.482483,172.091248l-10.748779,0c-0.918701,0 -1.704956,0.669983 -1.849976,1.581238l-0.46875,3.001221l-0.753723,-1.08374c-2.328796,-3.378723 -7.516296,-4.51001 -12.69751,-4.51001c-11.873779,0 -22.016235,8.997498 -23.993774,21.621277c-1.023743,6.294983 0.434998,12.315002 4.003784,16.512512c3.28125,3.860001 7.959961,5.462463 13.537476,5.462463c9.57251,0 14.878723,-6.144958 14.878723,-6.144958l-0.47998,2.987488c-0.179993,1.132507 0.69751,2.159973 1.850037,2.159973l9.67749,0c1.537476,0 2.842468,-1.112488 3.08374,-2.628723l5.8125,-36.794983c0.178772,-1.13501 -0.703735,-2.163757 -1.851257,-2.163757m-14.977478,20.922485c-1.037537,6.140015 -5.915039,10.265015 -12.132507,10.265015c-3.118774,0 -5.61499,-1.005005 -7.21875,-2.901245c-1.591248,-1.883789 -2.190002,-4.566284 -1.683777,-7.55127c0.965027,-6.090027 5.918762,-10.341248 12.042542,-10.341248c3.056183,0 5.529968,1.01001 7.168701,2.928772c1.647491,1.928696 2.296204,4.627487 1.823792,7.599976" id="path64"/>
    <path fill="#293b82" fill-rule="nonzero" d="m268.630005,172.091248l-10.806244,0c-1.03125,0 -1.996246,0.513733 -2.573761,1.371216l-14.90625,21.946289l-6.316254,-21.091248c-0.394989,-1.320007 -1.611221,-2.226257 -2.987488,-2.226257l-10.618744,0c-1.282501,0 -2.186249,1.26123 -1.77002,2.476257l11.892548,34.918701l-11.1875,15.786255c-0.878754,1.241272 0.007507,2.952515 1.52623,2.952515l10.792526,0c1.022491,0 1.97998,-0.5 2.564972,-1.33876l35.926239,-51.856262c0.858765,-1.241196 -0.025024,-2.938705 -1.536224,-2.938705" id="path66"/>
    <path fill="#459adb" fill-rule="nonzero" d="m384.152527,152.908752l-9.215027,58.611206c-0.17749,1.13501 0.698792,2.162537 1.850037,2.162537l9.265015,0c1.532471,0 2.841248,-1.118759 3.079956,-2.63501l9.086243,-57.557495c0.175049,-1.133728 -0.69873,-2.162476 -1.852478,-2.162476l-10.36499,0c-0.924988,0 -1.710022,0.669983 -1.848755,1.581238" id="path68"/>
   </g>
  </g>
 </g>
</svg>
