<svg xmlns="http://www.w3.org/2000/svg" xmlns:xlink="http://www.w3.org/1999/xlink" width="911.954" height="254.121" viewBox="0 0 911.954 254.121"><path fill="#1D3586" d="M365.493 81.844h17.177v-17.172h6.921v17.172h17.172v6.069h-17.172v17.171h-6.921v-17.171h-17.177z"/><defs><path id="a" d="M-135.902-78.385h1183.758v424.8h-1183.758z"/></defs><clipPath id="b"><use xlink:href="#a" overflow="visible"/></clipPath><path clip-path="url(#b)" fill="#1D3586" d="M569.889 78.417c2.046-.446 2.489-.582 2.63-2.931l.146-4.151c.146-5.389-1.933-10.465-10.939-10.465-4.065 0-9.296 1.766-9.296 5.012 0 2.333-1.131 5.1-2.052 6.219-2.801 3.409-6.622 3.005-8.056 2.073-1.097-.712-1.653-1.876-1.653-3.187 0-7.743 11.44-16.35 25.92-16.35 10.457 0 16.373 6.535 16.373 15.799l-.648 23.373c-.292 6.705 1.297 14.427 6.958 14.427 1.454 0 2.76-.436 3.634-.876.724-.439 1.449-1.017 1.886-1.017.579 0 1.02.876 1.02 1.893 0 .728-5.085 6.41-12.2 6.41-3.488 0-7.063-1.312-9.53-4.517-.582-.875-1.449-2.041-2.324-2.041-1.017 0-3.124 1.884-6.026 3.489-3.196 1.745-5.85 3.172-10.924 3.172-4.211 0-7.987-1.126-10.455-3.309-2.759-2.475-4.502-6.12-4.502-10.199 0-5.672 2.536-12.905 10.524-16.786 7.855-3.818 19.514-6.038 19.514-6.038m-9.675 28.239c2.903 0 8.359-2.507 9.816-3.967 1.742-1.742 2.204-4.998 2.204-8.057l.116-8.909c0-1.605-.581-1.897-1.452-1.897-.874 0-4.069.365-6.685 1.232-8.566 2.918-13.535 7.092-13.535 14.031.001 3.566 2.127 7.567 9.536 7.567"/><path clip-path="url(#b)" fill="#1D3586" d="M500.222 71.717c0-5.689 0-5.103-3.945-7.732l-1.311-.877c-.587-.583-.587-2.189.145-2.626 3.357-1.168 11.095-4.965 14.742-7.154.731.143 1.17.439 1.17 1.023v8.468c0 .729.146 1.166.438 1.312 5.112-4.232 10.25-8.389 15.611-8.389 3.621 0 6.517 2.318 6.517 5.795 0 4.78-3.76 6.429-6.078 6.429-1.45 0-2.176-.434-3.188-1.012-2.172-1.449-4.247-2.31-6.276-2.31-2.317 0-4.305 1.529-5.46 3.121-1.45 2.03-1.563 5.578-1.563 10.538l-.091 19.058c0 10.511.291 12.265 5.839 12.7l5.316.552c1.021.731.761 3.45-.259 3.885-6.866-.292-11.097-.435-16.205-.435-5.261 0-9.637.143-13.435.435-1.02-.435-1.312-2.918-.289-3.649l2.873-.722c5.401-.877 5.548-2.189 5.548-12.7l-.099-25.71zM765.871 71.717c0-5.689 0-5.103-3.944-7.732l-1.313-.877c-.588-.583-.588-2.189.146-2.626 3.356-1.168 11.094-4.965 14.739-7.154.731.143 1.172.439 1.172 1.023v8.468c0 .729.146 1.166.437 1.312 5.114-4.232 10.249-8.389 15.612-8.389 3.62 0 6.516 2.318 6.516 5.795 0 4.78-3.76 6.429-6.078 6.429-1.45 0-2.176-.434-3.188-1.012-2.173-1.449-4.247-2.31-6.277-2.31-2.315 0-4.303 1.529-5.459 3.121-1.452 2.03-1.563 5.578-1.563 10.538l-.091 19.058c0 10.511.289 12.265 5.838 12.7l5.315.552c1.022.731.763 3.45-.257 3.885-6.866-.292-11.097-.435-16.206-.435-5.259 0-9.637.143-13.435.435-1.02-.435-1.311-2.918-.288-3.649l2.873-.722c5.401-.877 5.548-2.189 5.548-12.7l-.097-25.71zM621.508 72.002v26.031c0 10.511.289 11.56 5.545 12.289l3.067.437c1.021.731.729 3.625-.292 4.059-4.381-.291-8.617-.434-13.723-.434-5.256 0-9.638.143-13.723.434-1.023-.434-1.318-3.328-.295-4.059l3.065-.437c5.404-.729 5.548-1.778 5.548-12.289v-25.3M610.702 95.078v-25.303c0-9.657-.503-10.004-2.308-10.358l-3.176-.654c-1.022-.732-.756-4.575.356-4.575 4.245 0 5.275-.07 10.531-.07 5.105 0 5.318-.007 10.139.136 1.112.036 1.164 3.351.146 4.082l-3.649 1.075c-.97.284-1.233 1.099-1.233 10.364v26.032"/><path clip-path="url(#b)" fill="#1D3586" d="M647.77 72.484c0-5.93 0-6.423-3.941-9.051l-1.315-.877c-.584-.583-.584-2.189.146-2.626 3.355-1.169 11.679-4.966 14.601-7.154.581 0 1.312.291 1.604 1.022-.293 3.356-.293 5.464-.293 6.776 0 .877-.049 1.472.973 1.472 6.131-3.797 12.549-7.136 20.574-7.136 13.342 0 17.578 8.229 17.578 18.014v25.108c0 10.512.292 11.561 5.549 12.29l3.209.437c1.022.731.73 3.625-.292 4.059-4.38-.291-8.614-.434-13.722-.434-5.256 0-9.636.143-13.577.434-1.021-.434-1.313-3.328-.289-4.059l2.771-.437c5.403-.877 5.55-1.778 5.55-12.29v-21.754c0-9.569-3.524-13.13-12.259-13.13-6.188 0-12.202 4.861-14.245 7.631-1.896 2.484-1.819 3.227-1.819 7.462v19.791c0 10.512.293 11.413 5.549 12.29l2.625.437c1.021.731.731 3.625-.29 4.059-3.94-.291-8.176-.434-13.283-.434-5.259 0-9.636.143-13.725.434-1.021-.434-1.315-3.328-.295-4.059l3.068-.437c5.402-.729 5.549-1.778 5.549-12.29v-25.548zM732.061 62.499c-2.483 0-2.634.013-2.634 3.079v27.079c0 8.465 1.022 16.205 10.659 16.205 1.463 0 2.774-.293 3.943-.731 1.314-.435 3.208-2.043 3.648-2.043 1.171 0 1.754 1.608 1.463 2.481-2.634 3.067-7.886 6.716-15.331 6.716-12.555 0-15.18-7.009-15.18-15.766l.068-33.45c0-3.941-2.17-3.57-5.088-3.57h-4.833c-.872-.586-1.02-3.112-.437-3.985 4.236-1.316 10.426-3.094 11.884-4.409 1.899-1.752 4.825-5.537 6.287-8.459.727-.289 2.48-.289 3.065.734v6.568c0 2.627.144 2.774 2.626 2.774h16.206c1.751 1.312 1.459 5.9.141 6.777h-16.487zM817.042 77.294c-3.797 0-3.939.292-3.939 3.939 0 14.747 8.866 25.878 24.482 25.878 4.823 0 8.911-1.462 13.43-7.155 1.462-.437 2.481.434 2.631 1.751-4.815 9.929-15.329 13.577-22.92 13.577-9.491 0-16.935-4.085-21.166-9.635-4.382-5.693-6.629-12.062-6.629-18.486 0-17.953 9.744-33.487 29.838-33.487 12.554 0 20.805 8.502 20.805 17.261 0 2.042.003 4.199-.909 5.335-.73.911-2.481 1.022-8.616 1.022h-27.007zm9.425-5.796c10.8 0 14.858-.562 15.367-1.282.306-.432.657-1.111.657-3.011 0-4.084-2.891-8.648-11.362-8.648-8.139 0-15.905 7.391-16.051 12.208 0 .292 0 .733 1.022.733h10.367zM875.351 77.294c-3.797 0-3.94.292-3.94 3.939 0 14.747 8.866 25.878 24.483 25.878 4.821 0 8.911-1.462 13.429-7.155 1.462-.437 2.483.434 2.631 1.751-4.814 9.929-15.329 13.577-22.92 13.577-9.491 0-16.934-4.085-21.166-9.635-4.382-5.693-6.629-12.062-6.629-18.486 0-17.953 9.745-33.487 29.838-33.487 12.554 0 20.805 8.502 20.805 17.261 0 2.042.004 4.199-.907 5.335-.732.911-2.483 1.022-8.617 1.022h-27.007zm9.425-5.796c10.8 0 14.859-.562 15.368-1.282.305-.432.657-1.111.657-3.011 0-4.084-2.891-8.648-11.362-8.648-8.14 0-15.906 7.391-16.051 12.208 0 .292 0 .733 1.021.733h10.367zM433.299 58.13c0-10.524-.111-11.844-5.265-12.391l-2.851-.327c-.769-.767-.769-2.524.108-3.072 4.936-.438 12.941-.989 25.006-.989 9.216 0 16.562.88 21.499 3.731 5.041 2.961 7.675 7.348 7.675 14.255 0 6.468-4.719 11.406-12.395 13.932-.438.108-.66.438-.66.655 0 .221.223.44.877.656 8.337 1.319 17.661 6.693 17.661 19.087 0 5.043-1.646 10.528-6.69 14.584-5.154 4.28-12.393 6.146-24.894 6.146-4.825 0-9.434-.333-13.602-.333-4.825 0-9.978.111-14.807.333-.874-.442-.987-2.416-.216-3.18l2.414-.33c5.151-.657 6.14-.99 6.14-12.615v-40.142zm12.724 12.07c0 2.847.326 2.958 4.712 2.958 10.306 0 15.026-4.057 15.026-13.925 0-9.654-7.129-13.494-13.929-13.494-5.483 0-5.809.217-5.809 4.605v19.856zm0 25.768c0 9.984 1.094 14.037 10.636 14.037 7.563 0 14.256-4.935 14.256-14.693 0-11.298-7.678-17.987-19.851-17.987-4.825 0-5.041.659-5.041 2.855v15.788zM609.798 13.415c-3.068-3.07-3.068-8.043-.001-11.113 3.067-3.071 8.041-3.068 11.108.001 3.067 3.066 3.067 8.04 0 11.112-3.065 3.066-8.039 3.064-11.107 0M609.797 43.559c-3.068-3.066-3.066-8.039 0-11.113 3.068-3.066 8.042-3.064 11.108.004 3.067 3.068 3.067 8.043 0 11.109-3.065 3.068-8.038 3.07-11.108 0M624.868 17.377c3.068-3.067 8.044-3.07 11.113 0 3.07 3.067 3.067 8.041 0 11.106-3.069 3.069-8.042 3.069-11.113.002-3.067-3.065-3.065-8.04 0-11.108M594.723 17.376c3.064-3.067 8.038-3.067 11.111 0 3.069 3.068 3.066 8.042-.002 11.108-3.07 3.068-8.045 3.068-11.109.001-3.067-3.066-3.071-8.041 0-11.109"/><path clip-path="url(#b)" fill="#009DDC" d="M234.047 39.272h-26.98c-1.845 0-3.415 1.342-3.703 3.164l-10.909 69.18c-.216 1.365.839 2.599 2.221 2.599h13.843c1.291 0 2.39-.94 2.592-2.215l3.093-19.613c.288-1.822 1.858-3.164 3.703-3.164h8.537c17.771 0 28.027-8.6 30.708-25.646 1.206-7.455.048-13.313-3.442-17.413-3.838-4.508-10.638-6.892-19.663-6.892m3.113 25.266c-1.474 9.685-8.871 9.685-16.024 9.685h-4.071l2.855-18.082c.173-1.093 1.115-1.898 2.222-1.898h1.866c4.869 0 9.469 0 11.84 2.774 1.419 1.661 1.848 4.121 1.312 7.521"/><path clip-path="url(#b)" fill="#1D3586" d="M41.621 39.272h-26.98c-1.845 0-3.415 1.342-3.703 3.164l-10.909 69.18c-.216 1.365.839 2.599 2.221 2.599h12.882c1.845 0 3.415-1.342 3.702-3.164l2.944-18.664c.288-1.822 1.858-3.164 3.703-3.164h8.537c17.771 0 28.027-8.6 30.708-25.646 1.206-7.455.048-13.313-3.442-17.413-3.839-4.508-10.638-6.892-19.663-6.892m3.112 25.266c-1.474 9.685-8.871 9.685-16.024 9.685h-4.071l2.855-18.082c.173-1.093 1.115-1.898 2.222-1.898h1.866c4.869 0 9.469 0 11.84 2.774 1.419 1.661 1.849 4.121 1.312 7.521M122.258 64.229h-12.918c-1.108 0-2.05.804-2.222 1.898l-.568 3.612-.903-1.308c-2.798-4.062-9.033-5.418-15.26-5.418-14.272 0-26.465 10.815-28.838 25.985-1.235 7.568.519 14.8 4.809 19.848 3.943 4.638 9.569 6.568 16.272 6.568 11.504 0 17.885-7.391 17.885-7.391l-.577 3.591c-.216 1.366.839 2.601 2.221 2.601h11.634c1.845 0 3.415-1.341 3.703-3.163l6.984-44.225c.215-1.366-.84-2.598-2.222-2.598m-18.004 25.145c-1.248 7.381-7.107 12.337-14.581 12.337-3.748 0-6.747-1.206-8.676-3.487-1.911-2.263-2.63-5.486-2.024-9.075 1.163-7.316 7.117-12.43 14.478-12.43 3.668 0 6.647 1.216 8.613 3.519 1.979 2.32 2.757 5.565 2.19 9.136"/><path clip-path="url(#b)" fill="#009DDC" d="M314.685 64.229h-12.918c-1.108 0-2.05.804-2.222 1.898l-.568 3.612-.903-1.308c-2.798-4.062-9.033-5.418-15.26-5.418-14.272 0-26.465 10.815-28.838 25.985-1.235 7.568.519 14.8 4.809 19.848 3.943 4.638 9.569 6.568 16.272 6.568 11.504 0 17.885-7.391 17.885-7.391l-.577 3.591c-.216 1.366.839 2.601 2.221 2.601h11.634c1.845 0 3.415-1.341 3.703-3.163l6.984-44.225c.215-1.366-.84-2.598-2.222-2.598m-18.004 25.145c-1.248 7.381-7.108 12.337-14.581 12.337-3.748 0-6.747-1.206-8.676-3.487-1.911-2.263-2.63-5.486-2.024-9.075 1.163-7.316 7.117-12.43 14.478-12.43 3.668 0 6.647 1.216 8.613 3.519 1.979 2.32 2.757 5.565 2.19 9.136"/><path clip-path="url(#b)" fill="#1D3586" d="M191.065 64.228h-12.985c-1.242 0-2.403.616-3.101 1.644l-17.913 26.381-7.59-25.351c-.475-1.586-1.935-2.674-3.591-2.674h-12.765c-1.541 0-2.626 1.516-2.129 2.975l14.298 41.969-13.448 18.975c-1.055 1.49.01 3.55 1.835 3.55h12.973c1.229 0 2.38-.603 3.081-1.614l43.184-62.324c1.033-1.492-.034-3.531-1.849-3.531"/><path clip-path="url(#b)" fill="#009DDC" d="M329.912 41.172l-11.073 70.445c-.215 1.365.84 2.598 2.221 2.598h11.137c1.844 0 3.415-1.342 3.702-3.164l10.918-69.179c.216-1.365-.839-2.6-2.221-2.6h-12.462c-1.108-.001-2.05.806-2.222 1.9"/><path clip-path="url(#b)" fill="#9CA1A5" d="M10.677 162.779h12.741c10.14 0 18.215 1.346 25.124 8.165 6.64 6.64 8.704 15.701 7.178 25.752-1.615 9.868-6.55 18.572-15.074 25.212-9.242 7.179-17.497 8.524-28.084 8.524h-12.562l10.677-67.653zm3.41 60.654c8.255 0 15.344-1.167 22.522-6.999 6.37-5.204 10.318-12.292 11.574-19.829 1.167-7.717-.628-15.164-5.563-20.278-5.383-5.474-12.024-6.551-20.009-6.551h-5.473l-8.524 53.657h5.473zM64.872 210.872c-1.167 7.807 3.409 14.087 11.575 14.087 6.101 0 10.587-3.679 14.176-8.703l5.563 3.499c-5.204 7.537-12.741 11.844-21.355 11.844-12.562 0-19.112-9.6-17.227-21.714 1.974-12.472 10.946-22.79 24.136-22.79 13.549 0 18.933 11.215 16.241 23.777h-33.109zm26.469-6.102c0-6.102-4.307-11.037-10.588-11.037-6.191 0-12.741 4.936-14.625 11.037h25.213zM116.374 216.614l17.047-28.354h8.077l-27.727 44.954-13.639-44.954h8.166zM144.009 210.872c-1.167 7.807 3.409 14.087 11.575 14.087 6.101 0 10.587-3.679 14.177-8.703l5.562 3.499c-5.204 7.537-12.741 11.844-21.354 11.844-12.563 0-19.113-9.6-17.228-21.714 1.974-12.472 10.947-22.79 24.136-22.79 13.549 0 18.933 11.215 16.241 23.777h-33.109zm26.469-6.102c0-6.102-4.307-11.037-10.588-11.037-6.191 0-12.741 4.936-14.625 11.037h25.213zM194.792 209.436c1.974-12.383 13.369-22.342 25.752-22.342 12.382 0 20.547 9.959 18.573 22.342-1.974 12.382-13.369 22.163-25.662 22.163s-20.637-9.781-18.663-22.163m7.178-.09c-1.346 8.614 3.679 15.612 12.562 15.612s16.061-6.998 17.407-15.612c1.346-8.523-3.589-15.613-12.472-15.613s-16.151 7.09-17.497 15.613M253.742 194.273h.179c4.218-4.666 9.87-7.179 15.703-7.179 12.382 0 18.483 10.678 16.599 22.343-1.884 12.022-11.126 22.161-23.777 22.161-5.743 0-10.678-2.513-13.37-7.089h-.179l-4.666 29.611h-7.178l10.408-65.86h7.178l-.897 6.013zm-2.692 14.625c-1.346 8.255 2.333 16.061 11.306 16.061 9.242 0 15.253-7.447 16.599-15.971 1.346-8.436-2.871-15.254-11.754-15.254-8.346 0-14.895 7.267-16.151 15.164"/><path clip-path="url(#b)" fill="#9CA1A5" d="M298.784 210.872c-1.167 7.807 3.409 14.087 11.574 14.087 6.102 0 10.588-3.679 14.178-8.703l5.562 3.499c-5.204 7.537-12.741 11.844-21.354 11.844-12.563 0-19.113-9.6-17.228-21.714 1.974-12.472 10.947-22.79 24.136-22.79 13.549 0 18.933 11.215 16.241 23.777h-33.109zm26.469-6.102c0-6.102-4.307-11.037-10.587-11.037-6.192 0-12.742 4.936-14.626 11.037h25.213zM348.67 192.836h.18c3.05-3.32 5.652-5.742 10.318-5.742 2.423 0 4.217.808 6.102 1.975l-4.487 6.549c-1.256-.987-2.064-1.884-3.948-1.884-7.895 0-9.87 10.139-10.767 15.612l-3.32 21.085h-7.178l6.64-42.171h7.178l-.718 4.576zM190.074 162.644l-10.727 67.68h7.181l10.727-67.68z"/></svg>