<svg xmlns="http://www.w3.org/2000/svg" width="786.995" height="266.82" viewBox="0 0 786.995 266.82"><g><path fill="#444345" d="M324.494 101.977c-.867 2.556-2.049 5.084-3.593 7.551-2.474-1.177-5.002-2.165-7.604-2.935-2.608-.769-6.005-1.156-10.176-1.156-1.544 0-3.199.125-4.935.388-1.729.258-3.328.746-4.737 1.47-1.396.732-2.571 1.725-3.513 3.009-.953 1.284-1.427 2.935-1.427 4.996 0 2.896 1.052 5.291 3.162 7.169 2.073 1.862 4.749 3.739 7.998 5.632 2.892 1.607 5.58 3.238 8.053 4.844 2.474 1.643 4.646 3.384 6.528 5.258 1.883 1.885 3.347 3.989 4.417 6.333 1.064 2.356 1.6 5.063 1.6 8.138 0 4.352-.794 8.523-2.368 12.53-1.575 4.023-4.006 7.522-7.297 10.492-3.279 2.998-7.438 5.379-12.483 7.163-5.026 1.809-11.007 2.705-17.909 2.705-8.022 0-15.91-1.487-23.681-4.489.332-2.562.966-5.131 1.852-7.746.905-2.59 1.987-5.303 3.268-8.125 3.236 1.202 6.546 2.225 9.911 3.074 3.378.849 6.65 1.279 9.795 1.279 2.639 0 5.106-.295 7.376-.896 2.252-.604 4.215-1.489 5.876-2.673 1.655-1.212 2.959-2.657 3.913-4.355.929-1.704 1.402-3.716 1.402-6.018 0-1.704-.394-3.211-1.163-4.484-.763-1.273-1.747-2.433-2.928-3.458-1.213-1.04-2.615-1.987-4.233-2.886-1.63-.892-3.255-1.852-4.866-2.873-5.457-3.254-9.788-6.589-12.987-10.053-3.193-3.441-4.799-7.53-4.799-12.212 0-4.603.812-8.727 2.436-12.354 1.612-3.617 3.913-6.671 6.903-9.154 2.99-2.463 6.589-4.383 10.828-5.697 4.214-1.316 8.964-1.971 14.255-1.971 4.7 0 8.755.356 12.157.992 3.421.71 7.008 1.778 10.761 3.218-.346 2.323-.942 4.736-1.792 7.294zm58.613 40.835c-1.784 2.813-4.177 5.218-7.167 7.174-2.984 1.948-6.38 3.556-10.183 4.782-3.789 1.241-7.745 2.176-11.831 2.769l-8.582 1.4c.522 4.092 1.883 7.155 4.098 9.155 2.221 1.995 5.481 3.004 9.721 3.004 3.421 0 6.436-.358 9.031-1.095 2.597-.716 5.358-1.676 8.25-2.879 1.36 1.718 2.289 3.777 2.763 6.205.455 2.437.689 5.026.689 7.746-1.446.687-3.113 1.316-5.052 1.855-1.9.57-3.894 1.03-5.949 1.417-2.055.384-4.091.677-6.146.889-2.049.207-3.87.328-5.494.328-5.211 0-9.659-.65-13.382-1.92-3.71-1.277-6.779-3.086-9.222-5.449-2.412-2.34-4.215-5.204-5.371-8.574-1.15-3.371-1.717-7.111-1.717-11.197 0-5.204.898-10.313 2.683-15.346 1.796-5.045 4.331-9.538 7.622-13.504 3.273-3.983 7.278-7.174 12.028-9.618 4.731-2.433 10.047-3.646 15.929-3.646 2.817 0 5.433.365 7.868 1.04 2.449.683 4.547 1.729 6.337 3.131 1.791 1.407 3.199 3.145 4.239 5.177 1.003 2.051 1.525 4.439 1.525 7.178.002 3.821-.89 7.16-2.687 9.978zm-16.192-11.634c-1.07-1.044-2.492-1.551-4.282-1.551-2.215 0-4.251.494-6.085 1.475-1.833.973-3.433 2.297-4.799 3.893-1.365 1.624-2.541 3.482-3.525 5.572-.978 2.11-1.716 4.208-2.233 6.337l6.657-1.021c3.23-.505 5.882-1.167 7.931-1.987 2.055-.806 3.66-1.704 4.854-2.687 1.206-.972 2.019-1.981 2.449-3.007.425-1.009.634-2.042.634-3.063-.001-1.636-.531-2.947-1.601-3.961zm86.064 6.26c-.16 1.448-.388 2.978-.628 4.604l-7.432 41.978c-3.242.521-6.355.769-9.346.769-2.983 0-5.931-.248-8.816-.769l7.161-40.573c.326-1.702.499-3.324.499-4.852 0-2.548-.554-4.356-1.661-5.39-1.102-1.014-2.677-1.536-4.731-1.536-1.193 0-2.535.317-4.029.88-1.495.615-3.003 1.876-4.541 3.796-1.532 1.926-3.033 4.633-4.485 8.136-1.451 3.486-2.688 8.094-3.721 13.815l-4.726 25.724c-3.322.521-6.429.769-9.327.769-3.002 0-5.937-.248-8.853-.769l6.934-37.751c.929-5.384 1.637-10.133 2.098-14.277.474-4.149.701-7.351.701-9.647v-2.391c0-.638-.037-1.329-.123-2.097 2.806-.51 5.63-.769 8.441-.769 1.286 0 2.553.056 3.845.19 1.286.142 2.633.314 4.091.578.179.686.345 1.483.523 2.431.16.949.252 2.34.252 4.243 0 .74-.03 1.516-.062 2.288-.049.759-.153 1.688-.313 2.808 1.015-1.794 2.295-3.5 3.826-5.096 1.551-1.635 3.279-3.056 5.248-4.243 1.969-1.204 4.067-2.127 6.337-2.82 2.258-.685 4.541-1.037 6.848-1.037 5.106 0 9.111 1.311 11.973 3.925 2.854 2.593 4.275 6.924 4.275 12.981 0 1.289-.086 2.653-.258 4.102zm72.321-28.419l-8.336 46.338c-.923 5.358-1.605 10.133-2.036 14.263-.431 4.139-.634 7.358-.634 9.655v2.377c0 .638.03 1.341.129 2.123-2.817.496-5.593.767-8.33.767-2.381 0-5.021-.271-7.918-.767-.179-.677-.357-1.508-.529-2.437-.166-.93-.246-2.351-.246-4.221 0-.77.019-1.669.062-2.687.03-1.025.153-2.094.313-3.212-1.193 1.979-2.614 3.814-4.282 5.583-1.661 1.736-3.507 3.256-5.512 4.536-2 1.279-4.153 2.305-6.448 3.056-2.325.779-4.743 1.169-7.303 1.169-5.629 0-9.862-1.788-12.668-5.388-2.823-3.574-4.238-8.318-4.238-14.188 0-6.417.972-12.594 2.903-18.565 1.907-5.988 4.762-11.263 8.57-15.875 3.784-4.604 8.521-8.312 14.139-11.068 5.629-2.776 12.206-4.171 19.699-4.171.597 0 1.182.037 1.729.067.561.056 1.059.056 1.477.056.936-5.021 1.6-9.282 1.981-12.767.388-3.517.578-6.425.578-8.718 0-.941-.024-1.719-.062-2.366-.037-.642-.116-1.333-.196-2.108 1.445-.263 3.112-.453 5.008-.582 1.864-.119 3.47-.185 4.848-.185 2.485 0 5.205.237 8.195.767.431 1.275.64 2.892.64 4.86-.001 3.746-.506 8.333-1.533 13.688zm-24.252 22.202c-.732-.03-1.428-.043-2.099-.043-4.134 0-7.585 1.015-10.446 3.062-2.873 2.039-5.235 4.61-7.105 7.674-1.883 3.076-3.236 6.38-4.079 9.914-.868 3.548-1.292 6.784-1.292 9.663 0 6.313 2.092 9.458 6.275 9.458 4.079 0 7.887-2.469 11.375-7.456 3.514-5.011 6.055-12.012 7.69-21.078l1.907-10.867c-.774-.171-1.512-.278-2.226-.327zm97.52-29.621c-.818 2.305-1.932 4.823-3.39 7.542-2.646-1.107-5.088-1.825-7.303-2.155-2.215-.356-4.387-.511-6.534-.511-5.716 0-10.601 1.249-14.648 3.691-4.055 2.478-7.377 5.691-9.979 9.666-2.603 3.968-4.534 8.483-5.752 13.504-1.243 5.041-1.858 10.11-1.858 15.228 0 7.432 1.803 12.708 5.433 15.883 3.63 3.14 8.423 4.705 14.402 4.705 1.193 0 2.511-.041 3.975-.175 1.446-.117 2.554-.276 3.316-.44l5.629-32.117c1.711-.357 3.322-.598 4.873-.702 1.544-.129 3.026-.198 4.479-.198s2.96.069 4.534.198c1.588.104 3.15.345 4.676.702l-8.053 45.562c-3.76 1.264-7.979 2.187-12.668 2.748-4.7.55-9.093.833-13.197.833-6.214 0-11.683-.896-16.371-2.705-4.694-1.784-8.619-4.26-11.788-7.409-3.156-3.143-5.512-6.903-7.087-11.193-1.581-4.319-2.375-8.984-2.375-14.005 0-8.296 1.225-16.052 3.704-23.308 2.467-7.245 5.961-13.576 10.434-19.021 4.467-5.404 9.881-9.661 16.199-12.774 6.307-3.125 13.313-4.676 20.974-4.676 4.005 0 7.598.261 10.767.775 3.15.5 6.355 1.48 9.592 2.937-.526 2.638-1.171 5.124-1.984 7.415zm52.406 25.716c-.597 2.557-1.408 4.698-2.424 6.408-.517-.086-1.064-.183-1.68-.252-.597-.074-1.365-.136-2.295-.136-3.481 0-6.386.607-8.631 1.801-2.271 1.189-4.135 2.869-5.581 5.06-1.445 2.172-2.602 4.792-3.438 7.862-.861 3.07-1.631 6.471-2.313 10.237l-4.725 25.724c-3.348.521-6.454.769-9.352.769-2.99 0-5.943-.248-8.835-.769l6.928-37.751c.91-5.384 1.617-10.133 2.092-14.277.479-4.149.713-7.351.713-9.647v-2.391c0-.638-.049-1.329-.142-2.097 2.824-.51 5.636-.769 8.466-.769 1.273 0 2.547.056 3.833.19 1.273.142 2.64.314 4.079.578.197.686.351 1.483.529 2.431.16.949.246 2.34.246 4.243 0 .74-.013 1.516-.05 2.288-.055.759-.153 1.688-.325 2.808.849-1.527 1.925-3.049 3.199-4.553 1.273-1.495 2.7-2.83 4.281-4.018 1.575-1.189 3.322-2.153 5.248-2.885 1.92-.72 4.023-1.083 6.337-1.083 1.791 0 3.341.222 4.596.634.099.34.142.693.142 1.027v1.158c0 2.388-.301 4.851-.898 7.41zm22.013 56.705c-3.255.521-6.318.769-9.217.769-2.646 0-5.5-.248-8.576-.769l9.229-52.351h-8.071c0-.24-.025-.492-.062-.763-.043-.24-.08-.554-.08-.893 0-2.211.228-4.288.646-6.214.425-1.915 1.064-3.893 1.92-5.943h25.87l-11.659 66.164zm80.497-75.002l-8.312 46.338c-.941 5.358-1.618 10.133-2.049 14.263-.431 4.139-.64 7.358-.64 9.655v2.377c0 .638.043 1.341.129 2.123-2.824.496-5.599.767-8.318.767-2.393 0-5.045-.271-7.942-.767-.172-.677-.338-1.508-.498-2.437-.185-.93-.259-2.351-.259-4.221 0-.77.019-1.669.056-2.687.043-1.025.153-2.094.313-3.212-1.181 1.979-2.614 3.814-4.275 5.583-1.668 1.736-3.501 3.256-5.513 4.536-1.993 1.279-4.159 2.305-6.46 3.056-2.313.779-4.726 1.169-7.284 1.169-5.642 0-9.869-1.788-12.674-5.388-2.824-3.574-4.221-8.318-4.221-14.188 0-6.417.966-12.594 2.867-18.565 1.932-5.988 4.773-11.263 8.595-15.875 3.777-4.604 8.496-8.312 14.132-11.068 5.623-2.776 12.188-4.171 19.712-4.171.603 0 1.169.037 1.723.067.554.056 1.046.056 1.464.056.93-5.021 1.618-9.282 1.981-12.767.394-3.517.578-6.425.578-8.718 0-.941-.019-1.719-.067-2.366-.043-.642-.104-1.333-.179-2.108 1.452-.263 3.119-.453 4.99-.582 1.863-.119 3.488-.185 4.866-.185 2.473 0 5.205.237 8.183.767.431 1.275.634 2.892.634 4.86.001 3.746-.498 8.333-1.532 13.688zm-24.246 22.202c-.727-.03-1.434-.043-2.11-.043-4.098 0-7.562 1.015-10.44 3.062-2.854 2.039-5.218 4.61-7.088 7.674-1.883 3.076-3.248 6.38-4.104 9.914-.837 3.548-1.273 6.784-1.273 9.663 0 6.313 2.086 9.458 6.251 9.458 4.109 0 7.918-2.469 11.412-7.456 3.495-5.011 6.048-12.012 7.666-21.078l1.932-10.867c-.782-.171-1.526-.278-2.246-.327z"/><g fill="#467BBD"><path d="M236.842 122.682l-.08-.259c-.485-1.182-.972-2.371-1.488-3.574-1.01-1.262-2.147-2.242-3.359-2.996-.542-.345-1.102-.652-1.655-.882-.375-.183-.726-.33-1.083-.453-2.295-.837-4.669-1.11-6.761-1.11-5.421 0-11.592 1.846-16.969 5.009-17.633 10.504-34.638 35.035-42.567 47.614l.498-.394-3.384 5.356c13.892-.431 45.404-1.521 62.36-13.065 19.668-14.839 16.21-30.411 14.488-35.246zM60.989 146.238c19.264-11.453 39.062-41.21 45.743-52.516-17.799.407-46.592 2.791-62.582 13.274-10.822 6.87-19.244 22.544-14.581 34.892l.147.313c.486 1.219.991 2.464 1.532 3.735 3.477 4.313 8.619 5.323 12.698 5.323 5.434.002 11.648-1.827 17.043-5.021zM175.676 142.159c-14.508-4.915-30.252-9.557-43.664-14.339-.172-10.569-.442-23.448-.763-35.158-.019-.563-.019-1.107-.049-1.659-.019-.576-.031-1.143-.037-1.696-.295-10.086-.621-19.013-.923-24.367-7.075 8.72-13.196 18.071-17.62 25.372-.351.574-.695 1.132-1.021 1.69l-.505.845c-.006.026-.172.308-.474.824-1.943 3.335-9.604 16.158-20.031 29.152.289.485 17.201 28.676 30.54 50.836l.947 1.571.953 1.587c6.823 11.309 12.36 20.483 13.689 22.602l-45.872-14.48-2.411-.771-2.32-.738-1.993-.628c1.932-17.538 5.113-54.26 6.441-59.952-8.09 10.094-17.848 20.299-27.863 26.269-5.9 3.494-12.742 5.502-18.753 5.502-3.71 0-7.014-.74-9.794-2.155-.296-.147-.591-.302-.855-.466 9.105 19.938 23.034 43.743 35.585 60.736 1.2 1.637 2.388 3.197 3.568 4.708l.086.113c4.849 5.896 12.269 9.169 20.838 9.169 5.433 0 11.253-1.3 17.325-3.866 18.765-9.062 35.721-36.398 42.956-48.076l.123-.207c.406-.658.794-1.273 1.132-1.809l.382-.613.006.01c.129-.282.308-.629.56-1.082.622-1.118 1.686-2.867 3.458-5.699 2.344-3.736 6.128-9.565 10.822-15.964 1.673-2.306 3.537-4.746 5.537-7.261zM145.16 89.348c.308.513.603 1.034.892 1.538 11.229 19.294 25.064 43.079 29.703 51.188 7.789-9.766 17.78-20.467 27.981-26.541 5.863-3.488 12.674-5.468 18.679-5.468 1.723 0 3.347.164 4.891.479l.031.012-.05-.055c-13.485-8.251-31.924-19.18-41.719-25.514.338-2.474.677-4.983 1.003-7.468.099-.776.196-1.546.313-2.327.093-.813.203-1.631.308-2.437 1.126-8.576 2.153-16.794 2.91-23.299 2.073 2.701 4.159 5.574 6.257 8.535l1.348 1.932c.418.583.812 1.186 1.23 1.795l.591.867c9.475 13.941 28.171 48.044 28.171 48.044l2.067.556c.911.306 1.772.675 2.59 1.081l.093.055c-3.617-7.854-8.022-16.356-12.89-24.871-6.115-10.781-12.926-21.607-19.718-31.287-.628-.906-1.262-1.797-1.901-2.679-1.464-2.038-2.91-4.02-4.368-5.927-.854-1.134-1.71-2.239-2.553-3.312-.093-.129-.197-.22-.296-.32v-.026c-4.571-3.654-11.013-5.707-18.254-5.707-5.882 0-11.904 1.378-16.513 3.767-8.902 4.512-17.651 13.103-25.305 22.473l13.591 23.36c.315.51.616 1.043.918 1.556z"/></g><path fill="#444345" d="M765.088 102.163c-3.23 0-5.63-2.455-5.63-5.649 0-3.618 2.431-5.833 6.331-5.833 3.205 0 5.47 2.347 5.47 5.527 0 3.636-2.326 5.955-6.171 5.955zm.356-10.2c-2.418 0-4.398 1.613-4.398 4.344 0 2.805 1.723 4.54 4.423 4.54 2.295 0 4.239-1.708 4.239-4.432 0-2.686-1.784-4.452-4.264-4.452zm.979 7.346l-1.489-2.213v1.333c0 .062.007.216.111.88h-1.821v-5.008l-.123-1.098h2.098c1.225 0 2.399.667 2.399 1.989 0 .646-.474 1.391-1.193 1.723l2.062 2.394h-2.044zm-1.434-3.028c.529 0 1.095-.344 1.095-1.089 0-.726-.565-.943-1.095-.943h-.056v2.032h.056z"/><path fill="#447BBE" d="M688.141 97.968c-.529 2.737-1.292 5.543-2.326 8.44-1.525.259-3.131.425-4.786.507-1.661.09-3.169.14-4.534.14-1.292 0-2.774-.05-4.485-.14-1.717-.082-3.248-.248-4.62-.507-.074-2.978.11-5.822.584-8.515.468-2.688 1.225-5.524 2.246-8.505 1.532-.354 3.156-.582 4.86-.699 1.698-.142 3.236-.194 4.614-.194 1.354 0 2.873.053 4.528.194 1.673.117 3.229.345 4.676.699-.001 2.981-.247 5.845-.757 8.58z"/></g><g><path fill="#1D1F29" d="M324.494 101.977c-.867 2.556-2.049 5.084-3.593 7.551-2.474-1.177-5.002-2.165-7.604-2.935-2.608-.769-6.005-1.156-10.176-1.156-1.544 0-3.199.125-4.935.388-1.729.258-3.328.746-4.737 1.47-1.396.732-2.571 1.725-3.513 3.009-.953 1.284-1.427 2.935-1.427 4.996 0 2.896 1.052 5.291 3.162 7.169 2.073 1.862 4.749 3.739 7.998 5.632 2.892 1.607 5.58 3.238 8.053 4.844 2.474 1.643 4.646 3.384 6.528 5.258 1.883 1.885 3.347 3.989 4.417 6.333 1.064 2.356 1.6 5.063 1.6 8.138 0 4.352-.794 8.523-2.368 12.53-1.575 4.023-4.006 7.522-7.297 10.492-3.279 2.998-7.438 5.379-12.483 7.163-5.026 1.809-11.007 2.705-17.909 2.705-8.022 0-15.91-1.487-23.681-4.489.332-2.562.966-5.131 1.852-7.746.905-2.59 1.987-5.303 3.268-8.125 3.236 1.202 6.546 2.225 9.911 3.074 3.378.849 6.65 1.279 9.795 1.279 2.639 0 5.106-.295 7.376-.896 2.252-.604 4.215-1.489 5.876-2.673 1.655-1.212 2.959-2.657 3.913-4.355.929-1.704 1.402-3.716 1.402-6.018 0-1.704-.394-3.211-1.163-4.484-.763-1.273-1.747-2.433-2.928-3.458-1.213-1.04-2.615-1.987-4.233-2.886-1.63-.892-3.255-1.852-4.866-2.873-5.457-3.254-9.788-6.589-12.987-10.053-3.193-3.441-4.799-7.53-4.799-12.212 0-4.603.812-8.727 2.436-12.354 1.612-3.617 3.913-6.671 6.903-9.154 2.99-2.463 6.589-4.383 10.828-5.697 4.214-1.316 8.964-1.971 14.255-1.971 4.7 0 8.755.356 12.157.992 3.421.71 7.008 1.778 10.761 3.218-.346 2.323-.942 4.736-1.792 7.294zm58.613 40.835c-1.784 2.813-4.177 5.218-7.167 7.174-2.984 1.948-6.38 3.556-10.183 4.782-3.789 1.241-7.745 2.176-11.831 2.769l-8.582 1.4c.522 4.092 1.883 7.155 4.098 9.155 2.221 1.995 5.481 3.004 9.721 3.004 3.421 0 6.436-.358 9.031-1.095 2.597-.716 5.358-1.676 8.25-2.879 1.36 1.718 2.289 3.777 2.763 6.205.455 2.437.689 5.026.689 7.746-1.446.687-3.113 1.316-5.052 1.855-1.9.57-3.894 1.03-5.949 1.417-2.055.384-4.091.677-6.146.889-2.049.207-3.87.328-5.494.328-5.211 0-9.659-.65-13.382-1.92-3.71-1.277-6.779-3.086-9.222-5.449-2.412-2.34-4.215-5.204-5.371-8.574-1.15-3.371-1.717-7.111-1.717-11.197 0-5.204.898-10.313 2.683-15.346 1.796-5.045 4.331-9.538 7.622-13.504 3.273-3.983 7.278-7.174 12.028-9.618 4.731-2.433 10.047-3.646 15.929-3.646 2.817 0 5.433.365 7.868 1.04 2.449.683 4.547 1.729 6.337 3.131 1.791 1.407 3.199 3.145 4.239 5.177 1.003 2.051 1.525 4.439 1.525 7.178.002 3.821-.89 7.16-2.687 9.978zm-16.192-11.634c-1.07-1.044-2.492-1.551-4.282-1.551-2.215 0-4.251.494-6.085 1.475-1.833.973-3.433 2.297-4.799 3.893-1.365 1.624-2.541 3.482-3.525 5.572-.978 2.11-1.716 4.208-2.233 6.337l6.657-1.021c3.23-.505 5.882-1.167 7.931-1.987 2.055-.806 3.66-1.704 4.854-2.687 1.206-.972 2.019-1.981 2.449-3.007.425-1.009.634-2.042.634-3.063-.001-1.636-.531-2.947-1.601-3.961zm86.064 6.26c-.16 1.448-.388 2.978-.628 4.604l-7.432 41.978c-3.242.521-6.355.769-9.346.769-2.983 0-5.931-.248-8.816-.769l7.161-40.573c.326-1.702.499-3.324.499-4.852 0-2.548-.554-4.356-1.661-5.39-1.102-1.014-2.677-1.536-4.731-1.536-1.193 0-2.535.317-4.029.88-1.495.615-3.003 1.876-4.541 3.796-1.532 1.926-3.033 4.633-4.485 8.136-1.451 3.486-2.688 8.094-3.721 13.815l-4.726 25.724c-3.322.521-6.429.769-9.327.769-3.002 0-5.937-.248-8.853-.769l6.934-37.751c.929-5.384 1.637-10.133 2.098-14.277.474-4.149.701-7.351.701-9.647v-2.391c0-.638-.037-1.329-.123-2.097 2.806-.51 5.63-.769 8.441-.769 1.286 0 2.553.056 3.845.19 1.286.142 2.633.314 4.091.578.179.686.345 1.483.523 2.431.16.949.252 2.34.252 4.243 0 .74-.03 1.516-.062 2.288-.049.759-.153 1.688-.313 2.808 1.015-1.794 2.295-3.5 3.826-5.096 1.551-1.635 3.279-3.056 5.248-4.243 1.969-1.204 4.067-2.127 6.337-2.82 2.258-.685 4.541-1.037 6.848-1.037 5.106 0 9.111 1.311 11.973 3.925 2.854 2.593 4.275 6.924 4.275 12.981 0 1.289-.086 2.653-.258 4.102zm72.321-28.419l-8.336 46.338c-.923 5.358-1.605 10.133-2.036 14.263-.431 4.139-.634 7.358-.634 9.655v2.377c0 .638.03 1.341.129 2.123-2.817.496-5.593.767-8.33.767-2.381 0-5.021-.271-7.918-.767-.179-.677-.357-1.508-.529-2.437-.166-.93-.246-2.351-.246-4.221 0-.77.019-1.669.062-2.687.03-1.025.153-2.094.313-3.212-1.193 1.979-2.614 3.814-4.282 5.583-1.661 1.736-3.507 3.256-5.512 4.536-2 1.279-4.153 2.305-6.448 3.056-2.325.779-4.743 1.169-7.303 1.169-5.629 0-9.862-1.788-12.668-5.388-2.823-3.574-4.238-8.318-4.238-14.188 0-6.417.972-12.594 2.903-18.565 1.907-5.988 4.762-11.263 8.57-15.875 3.784-4.604 8.521-8.312 14.139-11.068 5.629-2.776 12.206-4.171 19.699-4.171.597 0 1.182.037 1.729.067.561.056 1.059.056 1.477.056.936-5.021 1.6-9.282 1.981-12.767.388-3.517.578-6.425.578-8.718 0-.941-.024-1.719-.062-2.366-.037-.642-.116-1.333-.196-2.108 1.445-.263 3.112-.453 5.008-.582 1.864-.119 3.47-.185 4.848-.185 2.485 0 5.205.237 8.195.767.431 1.275.64 2.892.64 4.86-.001 3.746-.506 8.333-1.533 13.688zm-24.252 22.202c-.732-.03-1.428-.043-2.099-.043-4.134 0-7.585 1.015-10.446 3.062-2.873 2.039-5.235 4.61-7.105 7.674-1.883 3.076-3.236 6.38-4.079 9.914-.868 3.548-1.292 6.784-1.292 9.663 0 6.313 2.092 9.458 6.275 9.458 4.079 0 7.887-2.469 11.375-7.456 3.514-5.011 6.055-12.012 7.69-21.078l1.907-10.867c-.774-.171-1.512-.278-2.226-.327zm97.52-29.621c-.818 2.305-1.932 4.823-3.39 7.542-2.646-1.107-5.088-1.825-7.303-2.155-2.215-.356-4.387-.511-6.534-.511-5.716 0-10.601 1.249-14.648 3.691-4.055 2.478-7.377 5.691-9.979 9.666-2.603 3.968-4.534 8.483-5.752 13.504-1.243 5.041-1.858 10.11-1.858 15.228 0 7.432 1.803 12.708 5.433 15.883 3.63 3.14 8.423 4.705 14.402 4.705 1.193 0 2.511-.041 3.975-.175 1.446-.117 2.554-.276 3.316-.44l5.629-32.117c1.711-.357 3.322-.598 4.873-.702 1.544-.129 3.026-.198 4.479-.198s2.96.069 4.534.198c1.588.104 3.15.345 4.676.702l-8.053 45.562c-3.76 1.264-7.979 2.187-12.668 2.748-4.7.55-9.093.833-13.197.833-6.214 0-11.683-.896-16.371-2.705-4.694-1.784-8.619-4.26-11.788-7.409-3.156-3.143-5.512-6.903-7.087-11.193-1.581-4.319-2.375-8.984-2.375-14.005 0-8.296 1.225-16.052 3.704-23.308 2.467-7.245 5.961-13.576 10.434-19.021 4.467-5.404 9.881-9.661 16.199-12.774 6.307-3.125 13.313-4.676 20.974-4.676 4.005 0 7.598.261 10.767.775 3.15.5 6.355 1.48 9.592 2.937-.526 2.638-1.171 5.124-1.984 7.415zm52.406 25.716c-.597 2.557-1.408 4.698-2.424 6.408-.517-.086-1.064-.183-1.68-.252-.597-.074-1.365-.136-2.295-.136-3.481 0-6.386.607-8.631 1.801-2.271 1.189-4.135 2.869-5.581 5.06-1.445 2.172-2.602 4.792-3.438 7.862-.861 3.07-1.631 6.471-2.313 10.237l-4.725 25.724c-3.348.521-6.454.769-9.352.769-2.99 0-5.943-.248-8.835-.769l6.928-37.751c.91-5.384 1.617-10.133 2.092-14.277.479-4.149.713-7.351.713-9.647v-2.391c0-.638-.049-1.329-.142-2.097 2.824-.51 5.636-.769 8.466-.769 1.273 0 2.547.056 3.833.19 1.273.142 2.64.314 4.079.578.197.686.351 1.483.529 2.431.16.949.246 2.34.246 4.243 0 .74-.013 1.516-.05 2.288-.055.759-.153 1.688-.325 2.808.849-1.527 1.925-3.049 3.199-4.553 1.273-1.495 2.7-2.83 4.281-4.018 1.575-1.189 3.322-2.153 5.248-2.885 1.92-.72 4.023-1.083 6.337-1.083 1.791 0 3.341.222 4.596.634.099.34.142.693.142 1.027v1.158c0 2.388-.301 4.851-.898 7.41zm22.013 56.705c-3.255.521-6.318.769-9.217.769-2.646 0-5.5-.248-8.576-.769l9.229-52.351h-8.071c0-.24-.025-.492-.062-.763-.043-.24-.08-.554-.08-.893 0-2.211.228-4.288.646-6.214.425-1.915 1.064-3.893 1.92-5.943h25.87l-11.659 66.164zm80.497-75.002l-8.312 46.338c-.941 5.358-1.618 10.133-2.049 14.263-.431 4.139-.64 7.358-.64 9.655v2.377c0 .638.043 1.341.129 2.123-2.824.496-5.599.767-8.318.767-2.393 0-5.045-.271-7.942-.767-.172-.677-.338-1.508-.498-2.437-.185-.93-.259-2.351-.259-4.221 0-.77.019-1.669.056-2.687.043-1.025.153-2.094.313-3.212-1.181 1.979-2.614 3.814-4.275 5.583-1.668 1.736-3.501 3.256-5.513 4.536-1.993 1.279-4.159 2.305-6.46 3.056-2.313.779-4.726 1.169-7.284 1.169-5.642 0-9.869-1.788-12.674-5.388-2.824-3.574-4.221-8.318-4.221-14.188 0-6.417.966-12.594 2.867-18.565 1.932-5.988 4.773-11.263 8.595-15.875 3.777-4.604 8.496-8.312 14.132-11.068 5.623-2.776 12.188-4.171 19.712-4.171.603 0 1.169.037 1.723.067.554.056 1.046.056 1.464.056.93-5.021 1.618-9.282 1.981-12.767.394-3.517.578-6.425.578-8.718 0-.941-.019-1.719-.067-2.366-.043-.642-.104-1.333-.179-2.108 1.452-.263 3.119-.453 4.99-.582 1.863-.119 3.488-.185 4.866-.185 2.473 0 5.205.237 8.183.767.431 1.275.634 2.892.634 4.86.001 3.746-.498 8.333-1.532 13.688zm-24.246 22.202c-.727-.03-1.434-.043-2.11-.043-4.098 0-7.562 1.015-10.44 3.062-2.854 2.039-5.218 4.61-7.088 7.674-1.883 3.076-3.248 6.38-4.104 9.914-.837 3.548-1.273 6.784-1.273 9.663 0 6.313 2.086 9.458 6.251 9.458 4.109 0 7.918-2.469 11.412-7.456 3.495-5.011 6.048-12.012 7.666-21.078l1.932-10.867c-.782-.171-1.526-.278-2.246-.327z"/><g fill="#0071CE"><path d="M236.842 122.682l-.08-.259c-.485-1.182-.972-2.371-1.488-3.574-1.01-1.262-2.147-2.242-3.359-2.996-.542-.345-1.102-.652-1.655-.882-.375-.183-.726-.33-1.083-.453-2.295-.837-4.669-1.11-6.761-1.11-5.421 0-11.592 1.846-16.969 5.009-17.633 10.504-34.638 35.035-42.567 47.614l.498-.394-3.384 5.356c13.892-.431 45.404-1.521 62.36-13.065 19.668-14.839 16.21-30.411 14.488-35.246zM60.989 146.238c19.264-11.453 39.062-41.21 45.743-52.516-17.799.407-46.592 2.791-62.582 13.274-10.822 6.87-19.244 22.544-14.581 34.892l.147.313c.486 1.219.991 2.464 1.532 3.735 3.477 4.313 8.619 5.323 12.698 5.323 5.434.002 11.648-1.827 17.043-5.021zM175.676 142.159c-14.508-4.915-30.252-9.557-43.664-14.339-.172-10.569-.442-23.448-.763-35.158-.019-.563-.019-1.107-.049-1.659-.019-.576-.031-1.143-.037-1.696-.295-10.086-.621-19.013-.923-24.367-7.075 8.72-13.196 18.071-17.62 25.372-.351.574-.695 1.132-1.021 1.69l-.505.845c-.006.026-.172.308-.474.824-1.943 3.335-9.604 16.158-20.031 29.152.289.485 17.201 28.676 30.54 50.836l.947 1.571.953 1.587c6.823 11.309 12.36 20.483 13.689 22.602l-45.872-14.48-2.411-.771-2.32-.738-1.993-.628c1.932-17.538 5.113-54.26 6.441-59.952-8.09 10.094-17.848 20.299-27.863 26.269-5.9 3.494-12.742 5.502-18.753 5.502-3.71 0-7.014-.74-9.794-2.155-.296-.147-.591-.302-.855-.466 9.105 19.938 23.034 43.743 35.585 60.736 1.2 1.637 2.388 3.197 3.568 4.708l.086.113c4.849 5.896 12.269 9.169 20.838 9.169 5.433 0 11.253-1.3 17.325-3.866 18.765-9.062 35.721-36.398 42.956-48.076l.123-.207c.406-.658.794-1.273 1.132-1.809l.382-.613.006.01c.129-.282.308-.629.56-1.082.622-1.118 1.686-2.867 3.458-5.699 2.344-3.736 6.128-9.565 10.822-15.964 1.673-2.306 3.537-4.746 5.537-7.261zM145.16 89.348c.308.513.603 1.034.892 1.538 11.229 19.294 25.064 43.079 29.703 51.188 7.789-9.766 17.78-20.467 27.981-26.541 5.863-3.488 12.674-5.468 18.679-5.468 1.723 0 3.347.164 4.891.479l.031.012-.05-.055c-13.485-8.251-31.924-19.18-41.719-25.514.338-2.474.677-4.983 1.003-7.468.099-.776.196-1.546.313-2.327.093-.813.203-1.631.308-2.437 1.126-8.576 2.153-16.794 2.91-23.299 2.073 2.701 4.159 5.574 6.257 8.535l1.348 1.932c.418.583.812 1.186 1.23 1.795l.591.867c9.475 13.941 28.171 48.044 28.171 48.044l2.067.556c.911.306 1.772.675 2.59 1.081l.093.055c-3.617-7.854-8.022-16.356-12.89-24.871-6.115-10.781-12.926-21.607-19.718-31.287-.628-.906-1.262-1.797-1.901-2.679-1.464-2.038-2.91-4.02-4.368-5.927-.854-1.134-1.71-2.239-2.553-3.312-.093-.129-.197-.22-.296-.32v-.026c-4.571-3.654-11.013-5.707-18.254-5.707-5.882 0-11.904 1.378-16.513 3.767-8.902 4.512-17.651 13.103-25.305 22.473l13.591 23.36c.315.51.616 1.043.918 1.556z"/></g><path fill="#1D1F29" d="M765.088 102.163c-3.23 0-5.63-2.455-5.63-5.649 0-3.618 2.431-5.833 6.331-5.833 3.205 0 5.47 2.347 5.47 5.527 0 3.636-2.326 5.955-6.171 5.955zm.356-10.2c-2.418 0-4.398 1.613-4.398 4.344 0 2.805 1.723 4.54 4.423 4.54 2.295 0 4.239-1.708 4.239-4.432 0-2.686-1.784-4.452-4.264-4.452zm.979 7.346l-1.489-2.213v1.333c0 .062.007.216.111.88h-1.821v-5.008l-.123-1.098h2.098c1.225 0 2.399.667 2.399 1.989 0 .646-.474 1.391-1.193 1.723l2.062 2.394h-2.044zm-1.434-3.028c.529 0 1.095-.344 1.095-1.089 0-.726-.565-.943-1.095-.943h-.056v2.032h.056z"/><path fill="#0071CE" d="M688.141 97.968c-.529 2.737-1.292 5.543-2.326 8.44-1.525.259-3.131.425-4.786.507-1.661.09-3.169.14-4.534.14-1.292 0-2.774-.05-4.485-.14-1.717-.082-3.248-.248-4.62-.507-.074-2.978.11-5.822.584-8.515.468-2.688 1.225-5.524 2.246-8.505 1.532-.354 3.156-.582 4.86-.699 1.698-.142 3.236-.194 4.614-.194 1.354 0 2.873.053 4.528.194 1.673.117 3.229.345 4.676.699-.001 2.981-.247 5.845-.757 8.58z"/></g></svg>