<svg xmlns="http://www.w3.org/2000/svg" width="648" height="216" viewBox="0 0 648 216"><g fill="#ED1C24"><path d="M579.2 64.1c-6.7-3.899-14.601-5.8-23.4-5.899-9.1.1-16.899 2-23.8 5.899-6.9 3.801-12.1 8.9-16.1 15.4-3.8 6.3-5.9 13.5-5.9 21.2v.3c0 7.7 1.9 14.7 5.8 21 4 6.3 9.2 11.5 16 15.2 6.8 3.8 14.7 5.8 23.601 5.899 9-.1 16.8-2.1 23.699-6 6.9-3.8 12.101-8.899 16-15.3 3.9-6.3 5.9-13.5 6-21.1v-.3c-.1-7.7-2.1-14.9-6-21.2-3.7-6.399-9-11.399-15.9-15.099zm-33.2 26.2c2.5-2.6 5.5-4 9.4-4.1 3.699.1 6.8 1.5 9.399 4.2 2.601 2.699 3.7 6.1 3.9 10.3v.3c0 3.8-1.2 7.2-3.7 9.9-2.4 2.699-5.5 4.1-9.2 4.199-3.899-.1-7-1.5-9.6-4.3-2.601-2.7-3.8-6.1-4-10.1v-.3c.201-3.899 1.401-7.299 3.801-10.099zM508.1 54.4v-21.6h-34.9v21.6h34.9zM468.6 32.8h-33.7v108.3h33.7v-108.3zM430.1 54.4v-21.6h-34.9v21.6h34.9zM429.6 141.1v-80.9h-33.7v80.9h33.7zM507.6 60.2h-33.7v80.9h33.7v-80.9zM345.4 59.8h-26.8l-9.9 32.9-8.2-32.5h-48.2v-20.4h-33.7v20.4h-9.6v25.9h9.6v27.9c0 9.8 2.6 17.1 7.8 21.9 5.2 4.699 12.7 7 22.7 7 4.1 0 8.1-.4 11.8-1.2 3.9-.8 7-1.9 9.8-3.4v-25.9c-1.8.8-3.5 1.5-5.3 1.899-1.7.4-3.5.7-5 .7-2.7 0-4.7-.7-6.1-1.9-1.3-1.3-2-3.399-2-6.5v-20.499h18.6v-16.9l21.9 72.5h27.9l11.2-34.7 10.8 34.7h28.2l24.9-81.5h-31.7l-8.7 32.9-10-33.3z"/></g><g fill="#404040"><path d="M523.1 174.6v-4h-16.7v4h6.1v19.2h4.6v-19.2h6zM531.2 170.6h-4.5v23.2h4.5v-23.2zM499.4 189.7l1.399 4.1h4.601l-8.5-23.2h-3.5l-8.301 23.2h4.7l1.3-4.1h8.301zm-7-3.8l2.899-8.4 2.8 8.4h-5.699zM535.8 182.3c0 2.5.101 4.5.3 5.7.301 1.2.9 2.4 1.801 3.3 1 .9 2 1.601 3 2 1 .5 2.1.7 3.5.7 1.199 0 2.399-.2 3.399-.7 1-.399 1.9-.899 2.7-1.8 1.1-1 1.7-2.3 2-3.5s.4-3.2.4-5.7-.101-4.399-.4-5.7c-.3-1.199-.9-2.399-1.8-3.399-.9-.9-1.9-1.601-2.9-2-1-.4-2.2-.601-3.399-.601-1.4 0-2.5.2-3.5.601-1 .399-2 1.1-3 2-.9 1-1.5 2.2-1.801 3.399-.2 1.3-.3 3.2-.3 5.7zm4.7-4.5c.2-.8.5-1.399.9-1.899.399-.4.8-.7 1.3-1 .399-.101 1-.301 1.7-.301 1.1 0 2.1.5 2.8 1.301.399.5.8 1.199.899 2 .101.8.2 2.3.2 4.399 0 2-.1 3.5-.2 4.4-.1.8-.6 1.6-1.1 2.3s-1.5 1-2.6 1c-1.301 0-2.2-.4-2.801-1-.6-.7-.899-1.5-1.1-2.2-.1-.8-.1-2.2-.1-4.5.002-2.1.002-3.6.102-4.5zM575.1 170.6h-4.5v14.2l-9.1-14.2h-4v23.2h4.5v-14.2l9.1 14.2h4v-23.2zM586.4 179.9c-.9-.101-1.5-.4-1.9-.7-.5-.4-.7-.7-.8-1-.101-.2-.2-.601-.2-.9 0-.899.4-1.5 1-2.1.6-.601 1.5-.8 2.6-.8.9 0 1.801.199 2.601.399.8.3 1.5.7 2.2 1.3l2.899-2.899c-1-1-2.2-1.601-3.3-2-1.2-.4-2.6-.601-4.2-.601-2.5 0-4.399.601-5.899 1.9-1.4 1.3-2.2 3-2.2 5.1 0 1.9.6 3.301 1.7 4.4 1 1.1 2.5 1.7 4.5 2l2.699.3c.5.101.9.3 1.301.4.399.1.6.399 1 .6.399.4.5 1 .5 1.9 0 1.8-1.4 2.8-4 2.8-1.2 0-2.301-.2-3.2-.5-.9-.3-1.7-.8-2.5-1.5l-2.8 3c1.1 1.1 2.3 1.9 3.6 2.3 1.4.5 3 .7 4.8.7 2.5 0 4.601-.6 6.2-1.9 1.5-1.199 2.4-2.899 2.4-5.1 0-1.1-.2-2-.5-2.8-.301-.9-.801-1.601-1.601-2.4-.8-.7-2.2-1.2-4.2-1.5l-2.7-.399zM365.1 170.6h-4.5v23.2h4.5v-13.5l4.5 8.7h3l4.301-8.7v13.5h4.6v-23.2h-4.6l-5.801 12.5-6-12.5zM344.1 171.2c-1 .399-2 1.1-2.899 2-1 1-1.5 2.2-1.8 3.399-.2 1.301-.301 3.2-.301 5.7s.101 4.5.301 5.7c.3 1.2.8 2.4 1.8 3.3.899.9 1.899 1.601 2.899 2 1.101.5 2.301.7 3.5.7 1.301 0 2.5-.2 3.5-.7 1-.399 1.9-.899 2.801-1.8 1-1 1.699-2.3 1.899-3.5.3-1.2.3-3.2.3-5.7s0-4.399-.3-5.7c-.2-1.199-.899-2.399-1.8-3.399-.9-.9-1.9-1.601-2.9-2-1-.4-2.199-.601-3.5-.601-1.3.001-2.5.201-3.5.601zm-.2 6.6c.1-.8.3-1.399.699-1.899.5-.4.9-.7 1.4-1 .4-.101 1-.301 1.6-.301 1.301 0 2.2.5 2.9 1.301.4.5.7 1.199.9 2 .199.8.199 2.3.199 4.399 0 2 0 3.5-.199 4.4-.2.8-.5 1.6-1.101 2.3-.5.7-1.399 1-2.7 1-1.199 0-2.1-.4-2.699-1-.5-.7-.9-1.5-1-2.2-.2-.8-.301-2.2-.301-4.5.002-2.1.102-3.6.302-4.5zM407.7 170.6h-4.6l-5.8 12.5-6.1-12.5h-4.4v23.2h4.601v-13.5l4.399 8.7h3l4.3-8.7v13.5h4.601v-23.2zM412.6 185.8c0 2.5.801 4.4 2.4 6 1.6 1.4 3.6 2.2 6.1 2.2 2.4 0 4.4-.8 6-2.2 1.7-1.6 2.5-3.5 2.5-6v-15.2h-4.5v15.1c0 1.3-.3 2.399-1.1 3.1-.7.8-1.6 1.2-2.9 1.2-1.199 0-2.199-.5-2.899-1.2-.7-.8-1.101-1.8-1.101-3.1v-15.1h-4.5v15.2zM452.2 170.6h-4.5v14.2l-9.101-14.2h-4v23.2h4.5v-14.2l9.101 14.2h4v-23.2zM477.9 175.5c.6.6 1 1.4 1.199 2.3h4.601c-.4-2.399-1.3-4.1-2.8-5.399-1.601-1.2-3.5-1.801-5.7-1.801-1.3 0-2.4.2-3.4.601-1 .399-2 1.1-2.899 2-1 1-1.5 2.2-1.801 3.399-.199 1.301-.3 3.2-.3 5.7s.101 4.5.3 5.7c.301 1.2.801 2.4 1.801 3.3.899.9 1.899 1.601 2.899 2 1.101.5 2.2.7 3.4.7 2.2 0 4.1-.7 5.7-1.9 1.5-1.199 2.5-3.1 2.8-5.399h-4.6c-.199 1-.6 1.8-1.199 2.3-.7.7-1.5 1-2.601 1-1.2 0-2.2-.3-2.7-1s-1-1.4-1.1-2.2c-.1-.899-.2-2.399-.2-4.5 0-2.1.101-3.5.3-4.399.101-.9.5-1.7 1-2.301.5-.699 1.5-1 2.7-1 1.1-.001 1.9.299 2.6.899zM462.2 170.6h-4.6v23.2h4.601v-23.2zM209.5 188c.3 1.2.8 2.4 1.7 3.3 1 .9 2 1.601 3 2 1 .5 2.2.7 3.5.7 2.1 0 4-.7 5.5-1.9 1.6-1.199 2.6-3.1 2.9-5.399h-4.5c-.3 1-.7 1.8-1.4 2.3-.6.7-1.4 1-2.5 1-1.3 0-2.1-.3-2.7-1s-.9-1.4-1.1-2.2c-.1-.899-.2-2.399-.2-4.5 0-2.1.1-3.5.2-4.399.2-.9.5-1.7 1.1-2.301.6-.699 1.4-1 2.7-1 1.1 0 1.9.301 2.5.9.7.6 1.1 1.4 1.4 2.3h4.5c-.4-2.399-1.3-4.1-2.9-5.399-1.5-1.2-3.4-1.801-5.6-1.801-1.3 0-2.4.2-3.4.601-1 .399-2 1.1-3 2-.9 1-1.4 2.2-1.7 3.399-.3 1.301-.3 3.2-.3 5.7s0 4.499.3 5.699zM249.8 173.2c-.9 1-1.5 2.2-1.7 3.399-.3 1.301-.3 3.2-.3 5.7s0 4.5.3 5.7c.2 1.2.8 2.4 1.7 3.3 1 .9 2 1.601 3 2 1 .5 2.2.7 3.5.7 1.3 0 2.5-.2 3.5-.7 1-.399 1.9-.899 2.7-1.8 1.1-1 1.7-2.3 1.9-3.5.3-1.2.4-3.2.4-5.7s-.1-4.399-.4-5.7c-.2-1.199-.8-2.399-1.7-3.399-1-.9-1.9-1.601-2.9-2-1.1-.4-2.2-.601-3.5-.601-1.4 0-2.5.2-3.5.601-1 .4-2 1.1-3 2zm2.7 4.6c.2-.8.4-1.399.8-1.899.4-.4.9-.7 1.4-1 .4-.101 1-.301 1.6-.301 1.2 0 2.1.5 2.9 1.301.4.5.7 1.199.9 2 .1.8.1 2.3.1 4.399 0 2 0 3.5-.1 4.4-.2.8-.6 1.6-1.2 2.3-.5.7-1.4 1-2.6 1-1.2 0-2.1-.4-2.7-1-.6-.7-.9-1.5-1.1-2.2-.2-.8-.2-2.2-.2-4.5 0-2.1 0-3.6.2-4.5zM244.9 189.7h-10.5v-19.1h-4.5v23.2h15v-4.1zM286 170.6h-4.4v15.1c0 1.3-.4 2.399-1.2 3.1-.6.8-1.6 1.2-2.8 1.2-1.3 0-2.2-.5-3-1.2-.7-.8-1-1.8-1-3.1v-15.1h-4.5v15.2c0 2.5.7 4.4 2.3 6 1.7 1.4 3.7 2.2 6.1 2.2s4.4-.8 6.1-2.2c1.6-1.6 2.4-3.5 2.4-6v-15.2zM291 170.6v23.2h8.3c1.2 0 2.3-.3 3.4-.6 1.1-.4 1.9-1 2.7-1.7 1-1 1.7-2.1 1.9-3.3.3-1.2.4-2.8.4-4.601v-3c0-1.8-.1-3.399-.4-4.5-.2-1.199-.9-2.199-1.7-3.1-.9-.9-1.8-1.5-2.9-1.9-1.1-.3-2.1-.5-3.4-.5h-8.3zm11.2 5.5c.4.5.7 1.101.8 2 .1.801.1 2.101.1 4 0 1.9 0 3.301-.1 4.101-.1.899-.5 1.7-1.1 2.399-.5.7-1.5 1.101-3 1.101h-3.3v-15.101h3.3c.7 0 1.4.2 2 .4.5.2 1 .6 1.3 1.1zM323.9 177.9c.2-.9.5-1.7 1-2.301.6-.699 1.5-1 2.7-1 1.101 0 2 .301 2.601.9.7.6 1 1.4 1.3 2.3h4.6c-.5-2.399-1.399-4.1-2.899-5.399-1.601-1.2-3.4-1.801-5.601-1.801-1.3 0-2.5.2-3.5.601-1 .399-2 1.1-2.9 2-1 1-1.5 2.2-1.8 3.399-.2 1.301-.3 3.2-.3 5.7s.1 4.5.3 5.7c.3 1.2.8 2.4 1.8 3.3.9.9 1.9 1.601 2.9 2 1.1.5 2.3.7 3.5.7 2.2 0 4-.7 5.601-1.9 1.6-1.199 2.5-3.1 2.899-5.399h-4.6c-.3 1-.6 1.8-1.3 2.3-.601.7-1.5 1-2.601 1-1.199 0-2.1-.3-2.7-1-.5-.7-.9-1.4-1-2.2-.2-.899-.3-2.399-.3-4.5 0-2.1.2-3.5.3-4.4z"/></g><radialGradient id="a" cx="24877.043" cy="23540.674" r="609.279" gradientTransform="matrix(.134 0 0 .133 -3229.198 -3028.245)" gradientUnits="userSpaceOnUse"><stop offset=".443" stop-color="#B5B7BD"/><stop offset="1" stop-color="#6E7072"/></radialGradient><path fill="url(#a)" d="M180.35 95.603c0-22.097-7.897-41.079-23.692-56.848-15.795-15.669-34.931-23.503-57.308-23.503-22.275 0-41.411 7.834-57.308 23.503-15.794 15.768-23.692 34.751-23.692 56.848 0 22.196 7.897 41.179 23.692 56.848 15.896 15.668 35.033 23.502 57.308 23.502 22.376 0 41.512-7.834 57.308-23.502 15.795-15.67 23.692-34.652 23.692-56.848zm-21.566 0c0 16.271-5.873 30.132-17.415 41.683-11.644 11.55-25.616 17.274-42.019 17.274s-30.375-5.725-42.019-17.274c-11.542-11.551-17.416-25.411-17.416-41.683s5.873-30.132 17.416-41.683c11.644-11.449 25.616-17.274 42.019-17.274s30.375 5.825 42.019 17.274c11.542 11.551 17.415 25.411 17.415 41.683z"/><path fill="#fff" d="M141.369 137.285c11.542-11.551 17.415-25.411 17.415-41.683s-5.873-30.132-17.415-41.683c-11.644-11.449-25.616-17.274-42.019-17.274s-30.375 5.825-42.019 17.274c-11.542 11.552-17.415 25.412-17.415 41.684s5.873 30.132 17.416 41.683c11.644 11.55 25.616 17.274 42.019 17.274 16.402 0 30.374-5.725 42.018-17.275z"/><path fill="#ED1C24" d="M78.897 60.75c-4.455 0-8.302 1.607-11.44 4.721-3.14 3.215-4.76 6.93-4.76 11.35s1.621 8.236 4.76 11.35c3.138 3.214 6.985 4.72 11.44 4.72 4.456 0 8.303-1.506 11.441-4.72 3.14-3.113 4.759-6.93 4.759-11.35s-1.619-8.135-4.759-11.35c-3.138-3.114-6.985-4.721-11.441-4.721z"/><path fill="#D5D8DF" d="M119.904 60.75c-4.455 0-8.302 1.607-11.441 4.721-3.139 3.215-4.759 6.93-4.759 11.35s1.62 8.236 4.759 11.35c3.139 3.214 6.986 4.72 11.441 4.72s8.302-1.506 11.441-4.72c3.24-3.113 4.758-6.93 4.758-11.35s-1.519-8.135-4.758-11.35c-3.139-3.114-6.986-4.721-11.441-4.721zM78.897 98.314c-4.455 0-8.302 1.606-11.44 4.721-3.14 3.113-4.76 6.93-4.76 11.35s1.621 8.234 4.76 11.35c3.138 3.113 6.985 4.719 11.44 4.719 4.456 0 8.303-1.605 11.441-4.719 3.14-3.115 4.759-6.93 4.759-11.35s-1.619-8.236-4.759-11.35c-3.138-3.114-6.985-4.721-11.441-4.721z"/><path fill="#ED1C24" d="M119.904 98.314c-4.354 0-8.201 1.507-11.441 4.721-3.241 3.215-4.759 6.93-4.759 11.449 0 4.32 1.519 8.135 4.759 11.25 3.24 3.113 7.087 4.719 11.441 4.719 4.556 0 8.302-1.605 11.441-4.719 3.24-3.115 4.758-6.93 4.758-11.25 0-4.52-1.519-8.234-4.758-11.449-3.139-3.214-6.885-4.721-11.441-4.721z"/><g fill="#939598"><path d="M605.104 61.794h-4.136v-1.481h10.066v1.481h-4.155v12.007h-1.775v-12.007zM623.921 67.877c-.102-1.881-.224-4.163-.224-5.826h-.039c-.484 1.563-1.029 3.262-1.715 5.123l-2.399 6.544h-1.332l-2.219-6.423c-.646-1.92-1.17-3.643-1.554-5.245h-.041c-.04 1.684-.142 3.925-.263 5.965l-.361 5.784h-1.676l.95-13.489h2.238l2.319 6.524c.565 1.659 1.009 3.143 1.371 4.539h.041c.361-1.359.848-2.837 1.453-4.539l2.42-6.524h2.238l.847 13.489h-1.732l-.322-5.922z"/></g></svg>